<?xml version="1.0" encoding="utf-8"?>
<!-- Generator: Adobe Illustrator 28.0.0, SVG Export Plug-In . SVG Version: 6.00 Build 0)  -->
<svg version="1.1" id="Layer_1" xmlns="http://www.w3.org/2000/svg" xmlns:xlink="http://www.w3.org/1999/xlink" x="0px" y="0px"
	 viewBox="0 0 938 756.9" style="enable-background:new 0 0 938 756.9;" xml:space="preserve">
<style type="text/css">
	.st0{fill:none;}
	.st1{fill:#C3C3C5;}
	.st2{fill:url(#SVGID_1_);}
	.st3{fill:url(#SVGID_00000048460498996058777230000004951856183658809256_);}
	.st4{fill:url(#SVGID_00000109030301648067474200000006162971062504429759_);}
	.st5{fill:url(#SVGID_00000175321353291764845490000007010112111877566899_);}
	.st6{fill:url(#SVGID_00000183238210914906063870000010099198197666846115_);}
	.st7{fill:url(#SVGID_00000084488785934087162840000007861523257606178187_);}
	.st8{fill:url(#SVGID_00000055685737398429752190000006700738338640687279_);}
	.st9{fill:url(#SVGID_00000063631002376515857300000002305701734138163338_);}
	.st10{fill:url(#SVGID_00000173849344105193820260000004285837953403754894_);}
	.st11{fill:url(#SVGID_00000039822480142243398910000014062202654935895435_);}
	.st12{fill:url(#SVGID_00000080206591458511072790000012758780045617764020_);}
	.st13{fill:url(#SVGID_00000128478334382255706560000011287602813889062842_);}
	.st14{fill:url(#SVGID_00000132051242284053785100000001409873847708854166_);}
	.st15{fill:url(#SVGID_00000013194628530752262990000015154473989238608560_);}
</style>
<pattern  x="-491.4" y="-161.9" width="67" height="67" patternUnits="userSpaceOnUse" id="New_Pattern_Swatch_5" viewBox="0 -67 67 67" style="overflow:visible;">
	<g>
		<rect y="-67" class="st0" width="67" height="67"/>
		<rect y="-67" class="st1" width="67" height="67"/>
	</g>
</pattern>
<g>
	<g>
		<pattern  id="SVGID_1_" xlink:href="#New_Pattern_Swatch_5" patternTransform="matrix(1 0 0 1 9 -10)">
		</pattern>
		<path class="st2" d="M361.3,677.5c-12.1,0-22.4-13.8-22.4-30.2V51.6c0-16.4,10.3-30.2,22.4-30.2h442.5c12.1,0,22.4,13.8,22.4,30.2
			v391c7.4,2.4,14.5,5.3,21.4,8.6V51.6c0-28.5-19.6-51.6-43.8-51.6H361.3c-24.1,0-43.8,23.2-43.8,51.6v595.7
			c0,28.4,19.6,51.6,43.8,51.6h292c-5.6-6.7-10.6-13.8-15.1-21.4H361.3z"/>
		
			<pattern  id="SVGID_00000139263112473052973320000008872649363134601091_" xlink:href="#New_Pattern_Swatch_5" patternTransform="matrix(1 0 0 1 9 -10)">
		</pattern>
		<path style="fill:url(#SVGID_00000139263112473052973320000008872649363134601091_);" d="M388.7,446.7c0,5.9,4.8,10.7,10.7,10.7
			h295.5c18.9-11.2,40.3-18.7,63.1-21.4H399.4C393.5,436,388.7,440.8,388.7,446.7z"/>
		
			<pattern  id="SVGID_00000053509404741761352610000003867055365889756081_" xlink:href="#New_Pattern_Swatch_5" patternTransform="matrix(1 0 0 1 9 -10)">
		</pattern>
		<path style="fill:url(#SVGID_00000053509404741761352610000003867055365889756081_);" d="M388.7,508.7c0,5.9,4.8,10.7,10.7,10.7
			h235.9c4.1-7.5,8.8-14.6,13.9-21.4H399.4C393.5,498,388.7,502.8,388.7,508.7z"/>
		
			<pattern  id="SVGID_00000123420556134475647560000001881852994961699973_" xlink:href="#New_Pattern_Swatch_5" patternTransform="matrix(1 0 0 1 9 -10)">
		</pattern>
		<path style="fill:url(#SVGID_00000123420556134475647560000001881852994961699973_);" d="M761,374.7H399.4
			c-5.9,0-10.7,4.8-10.7,10.7c0,5.9,4.8,10.7,10.7,10.7H761c5.9,0,10.7-4.8,10.7-10.7C771.7,379.5,766.9,374.7,761,374.7z"/>
		
			<pattern  id="SVGID_00000023966253472887616830000004415420446262874297_" xlink:href="#New_Pattern_Swatch_5" patternTransform="matrix(1 0 0 1 9 -10)">
		</pattern>
		<path style="fill:url(#SVGID_00000023966253472887616830000004415420446262874297_);" d="M761,312.8H561.2
			c-5.9,0-10.7,4.8-10.7,10.7c0,5.9,4.8,10.7,10.7,10.7H761c5.9,0,10.7-4.8,10.7-10.7C771.7,317.6,766.9,312.8,761,312.8z"/>
		
			<pattern  id="SVGID_00000065063448650312267520000005501226498868703880_" xlink:href="#New_Pattern_Swatch_5" patternTransform="matrix(1 0 0 1 9 -10)">
		</pattern>
		<path style="fill:url(#SVGID_00000065063448650312267520000005501226498868703880_);" d="M761,251.9H561.2
			c-5.9,0-10.7,4.8-10.7,10.7c0,5.9,4.8,10.7,10.7,10.7H761c5.9,0,10.7-4.8,10.7-10.7C771.7,256.6,766.9,251.9,761,251.9z"/>
		
			<pattern  id="SVGID_00000016065686310032238040000009033559899902523786_" xlink:href="#New_Pattern_Swatch_5" patternTransform="matrix(1 0 0 1 9 -10)">
		</pattern>
		<path style="fill:url(#SVGID_00000016065686310032238040000009033559899902523786_);" d="M761,192H625.3
			c-5.9,0-10.7,4.8-10.7,10.7c0,5.9,4.8,10.7,10.7,10.7H761c5.9,0,10.7-4.8,10.7-10.7C771.7,196.8,766.9,192,761,192z"/>
		
			<pattern  id="SVGID_00000090985352575334262100000008656786305506468252_" xlink:href="#New_Pattern_Swatch_5" patternTransform="matrix(1 0 0 1 9 -10)">
		</pattern>
		<path style="fill:url(#SVGID_00000090985352575334262100000008656786305506468252_);" d="M761,139.6H625.3
			c-5.9,0-10.7,4.8-10.7,10.7c0,5.9,4.8,10.7,10.7,10.7H761c5.9,0,10.7-4.8,10.7-10.7C771.7,144.4,766.9,139.6,761,139.6z"/>
		
			<pattern  id="SVGID_00000038371392603253344600000001308469157730146976_" xlink:href="#New_Pattern_Swatch_5" patternTransform="matrix(1 0 0 1 9 -10)">
		</pattern>
		<path style="fill:url(#SVGID_00000038371392603253344600000001308469157730146976_);" d="M761,87.3H625.3
			c-5.9,0-10.7,4.8-10.7,10.7c0,5.9,4.8,10.7,10.7,10.7H761c5.9,0,10.7-4.8,10.7-10.7C771.7,92.1,766.9,87.3,761,87.3z"/>
		
			<pattern  id="SVGID_00000134248667137192715690000000312545793113074619_" xlink:href="#New_Pattern_Swatch_5" patternTransform="matrix(1 0 0 1 9 -10)">
		</pattern>
		<path style="fill:url(#SVGID_00000134248667137192715690000000312545793113074619_);" d="M388.7,570.7c0,5.9,4.8,10.7,10.7,10.7
			h217.2c0.7-7.3,1.8-14.4,3.4-21.4H399.4C393.5,560,388.7,564.8,388.7,570.7z"/>
		
			<pattern  id="SVGID_00000137116826930825267670000011789049063822893975_" xlink:href="#New_Pattern_Swatch_5" patternTransform="matrix(1 0 0 1 9 -10)">
		</pattern>
		<polygon style="fill:url(#SVGID_00000137116826930825267670000011789049063822893975_);" points="473,327.1 539.1,175.7 
			481.5,175.4 480.9,72.5 408.7,223.6 466.9,223.7 		"/>
		
			<pattern  id="SVGID_00000085215853408866251910000013071440080691909564_" xlink:href="#New_Pattern_Swatch_5" patternTransform="matrix(1 0 0 1 -50 -62)">
		</pattern>
		<path style="fill:url(#SVGID_00000085215853408866251910000013071440080691909564_);" d="M847.6,451.2c-6.9-3.4-14-6.3-21.4-8.6
			c-15.5-5-32.1-7.7-49.2-7.7c-6.4,0-12.7,0.4-18.8,1.1c-22.8,2.7-44.2,10.1-63.1,21.4c-17.7,10.5-33.2,24.3-45.7,40.6
			c-5.2,6.7-9.8,13.9-13.9,21.4c-6.8,12.6-12,26.3-15.3,40.6c-1.6,7-2.7,14.1-3.4,21.4c-0.4,4.8-0.7,9.6-0.7,14.5
			c0,29.8,8.2,57.7,22.3,81.6c4.5,7.5,9.5,14.7,15.1,21.4c29.6,35.4,74,58,123.6,58c88.8,0,161-72.2,161-161
			C938,532.4,901,477.5,847.6,451.2z M776.9,735.6c-77,0-139.6-62.6-139.6-139.6c0-77,62.6-139.6,139.6-139.6
			c77,0,139.6,62.6,139.6,139.6C916.6,672.9,853.9,735.6,776.9,735.6z"/>
		
			<pattern  id="SVGID_00000051353744760545804950000002473022516746287751_" xlink:href="#New_Pattern_Swatch_5" patternTransform="matrix(1 0 0 1 -50 -62)">
		</pattern>
		<path style="fill:url(#SVGID_00000051353744760545804950000002473022516746287751_);" d="M787.5,689.3v-14.4
			c30.6-2.9,51.3-20.5,51.3-47c0-25.8-15.7-40.5-52.3-49.6v-46.2c8.2,1.9,16.4,5.5,24.8,10.6c2.4,1.4,4.8,2.2,7.2,2.2
			c7.5,0,13.5-5.8,13.5-13.3c0-5.8-3.4-9.4-7.2-11.6c-11.1-7-23.1-11.6-37.3-13.2v-5.3c0-5.8-4.6-10.4-10.4-10.4
			c-5.8,0-10.6,4.6-10.6,10.4v5.1c-30.1,2.4-50.6,20.2-50.6,46c0,27.2,16.4,40.4,51.5,49.6v47.4c-13.2-2.4-24.3-7.9-35.6-16.1
			c-2.2-1.7-5.1-2.7-8-2.7c-7.5,0-13.2,5.8-13.2,13.2c0,5.1,2.4,8.9,6.5,11.6c14.7,10.4,31.3,16.9,49.4,18.8v14.9
			c0,5.8,4.8,10.4,10.6,10.4C782.9,699.7,787.5,695.1,787.5,689.3z M786.5,606.7c18.5,5.8,23.8,12.3,23.8,22.9
			c0,11.6-8.4,19.3-23.8,21V606.7z M744.4,550.8c0-10.6,7.7-18.8,23.1-20.2v42.6C748.9,567.2,744.4,561,744.4,550.8z"/>
	</g>
	<g>
		
			<pattern  id="SVGID_00000063632467057155237630000017238566708678342792_" xlink:href="#New_Pattern_Swatch_5" patternTransform="matrix(1 0 0 1 -50 -62)">
		</pattern>
		<path style="fill:url(#SVGID_00000063632467057155237630000017238566708678342792_);" d="M89.8,349.1h-80c-5.3,0-9.7-4.5-9.7-9.7
			c0-5.3,4.5-9.7,9.7-9.7h80v-78.8c0-5.7,4.5-10.2,10.1-10.2c5.7,0,10.2,4.5,10.2,10.2v78.8h80c5.3,0,9.7,4.5,9.7,9.7
			c0,5.3-4.5,9.7-9.7,9.7h-80v78.8c0,5.7-4.5,10.1-10.2,10.1c-5.7,0-10.1-4.5-10.1-10.1V349.1z"/>
	</g>
</g>
</svg>
