<?xml version="1.0" encoding="utf-8"?>
<!-- Generator: Adobe Illustrator 28.0.0, SVG Export Plug-In . SVG Version: 6.00 Build 0)  -->
<svg version="1.1" id="Layer_1" xmlns="http://www.w3.org/2000/svg" xmlns:xlink="http://www.w3.org/1999/xlink" x="0px" y="0px"
	 viewBox="0 0 938 756.9" style="enable-background:new 0 0 938 756.9;" xml:space="preserve">
<style type="text/css">
	.st0{fill:none;}
	.st1{fill:#C3C3C5;}
	.st2{fill:url(#SVGID_1_);}
	.st3{fill:url(#SVGID_00000098216325148075702550000003487428447545195659_);}
	.st4{fill:url(#SVGID_00000175319625700996911960000005901535987087333537_);}
</style>
<pattern  x="-491.4" y="-161.9" width="67" height="67" patternUnits="userSpaceOnUse" id="New_Pattern_Swatch_5" viewBox="0 -67 67 67" style="overflow:visible;">
	<g>
		<rect y="-67" class="st0" width="67" height="67"/>
		<rect y="-67" class="st1" width="67" height="67"/>
	</g>
</pattern>
<g>
	<g>
		<pattern  id="SVGID_1_" xlink:href="#New_Pattern_Swatch_5" patternTransform="matrix(1 0 0 1 9 -10)">
		</pattern>
		<path class="st2" d="M258.6,610.3h23.9c3.4,0,6.2-2.8,6.2-6.2V489.3c0-3.4,2.8-6.2,6.2-6.2h97.5c3.4,0,6.2,2.8,6.2,6.2v114.6
			c0,3.4,2.8,6.2,6.2,6.2h24.4c3.4,0,6.2-2.8,6.2-6.2V434.4c0-3.4,2.8-6.2,6.2-6.2h97.4c3.4,0,6.2,2.8,6.2,6.2v169.5
			c0,3.4,2.8,6.2,6.2,6.2h24.3c3.4,0,6.2-2.8,6.2-6.2V361.1c0-3.4,2.8-6.2,6.2-6.2h97.5c3.4,0,6.2,2.8,6.2,6.2v243
			c0,3.4,2.8,6.2,6.2,6.2h24.3c3.4,0,6.2-2.8,6.2-6.2V287.6c0-3.4,2.8-6.2,6.2-6.2h97.3c3.4,0,6.2,2.8,6.2,6.2v316.7
			c0,3.4,2.8,6.2,6.2,6.2H869c3.4,0,6.2,2.8,6.2,6.2v9.8c0,3.4-2.7,6.2-6.1,6.2c-0.1,0-0.2,0-0.4,0c-203.5,0-406.9,0-610.4,0
			c0,0,0,0-0.1,0c-3.3,0-6-2.8-6-6.2v-10.2C252.4,613.1,255.1,610.3,258.6,610.3z M817.4,604.1V308.7c0-3.4-2.8-6.2-6.2-6.2H756
			c-3.4,0-6.2,2.8-6.2,6.2v295.4c0,3.4,2.8,6.2,6.2,6.2h55.1C814.6,610.3,817.4,607.5,817.4,604.1z M670.6,604.1V382.3
			c0-3.4-2.8-6.2-6.2-6.2h-55.3c-3.4,0-6.2,2.8-6.2,6.2v221.9c0,3.4,2.8,6.2,6.2,6.2h55.3C667.8,610.4,670.6,607.6,670.6,604.1z
			 M524.1,604.1V455.5c0-3.4-2.8-6.2-6.2-6.2h-55.2c-3.4,0-6.2,2.8-6.2,6.2v148.6c0,3.4,2.8,6.2,6.2,6.2h55.2
			C521.3,610.3,524.1,607.6,524.1,604.1z M377.3,604.1v-94c0-3.4-2.8-6.2-6.2-6.2h-55.2c-3.4,0-6.2,2.8-6.2,6.2v94
			c0,3.4,2.8,6.2,6.2,6.2H371C374.5,610.4,377.3,607.6,377.3,604.1z"/>
	</g>
	<g>
		
			<pattern  id="SVGID_00000101821033592887587780000017554895398943912584_" xlink:href="#New_Pattern_Swatch_5" patternTransform="matrix(1 0 0 1 9 -10)">
		</pattern>
		<path style="fill:url(#SVGID_00000101821033592887587780000017554895398943912584_);" d="M527,200.6
			c-16.5,12.9-34.4,16.8-54.4,10.5c-1.4-0.4-8.8-2.4-9.9-1.2c-24.3,27.2-48.5,54.5-72.9,81.6c-2.6,2.9,3.4,7.7,4.6,10.4
			c12.8,29.7-2.3,63.8-32.8,74.1c-22.4,7.5-47.2-0.1-61.4-19c-14.1-18.7-14.8-44.3-1.7-63.7c13.2-19.5,37-28.6,59.7-22.1
			c5.4,1.5,12.7,6.3,16.2,2.3c22.9-26,46-51.9,69.1-77.7c2.4-2.7-1.2-10.6-2.9-14.3c-9.5-21.3-4.6-45.8,11.7-61.6
			c16.4-15.9,41-20,61.4-10.5c21.2,9.9,33.6,31.3,31.6,54.8c-0.3,3.3,0.3,5,3.3,6.7c16.1,8.9,32.2,18,48.2,27.1
			c3.1,1.8,5.1,1.5,8-0.6c16.6-11.8,34.7-13.8,53.6-6.3c3.1,1.2,9.2,5.9,11.6,3.6c21.4-20.2,42.8-40.3,64.4-60.2
			c2.8-2.6-1.5-9.6-2.6-12.8c-9.8-30.1,6.9-61.8,36.9-70.2c30-8.4,60.9,9.2,68.3,39.6c5.2,21.3-0.6,40-17.1,54.4
			c-16.7,14.6-36,17.5-56.8,9.6c-3.6-1.4-11.1-4.9-13.9-2.2c-21,19.9-42.2,39.8-63.4,59.5c-2.8,2.6,2.1,8.3,3.3,12
			c7.2,22,0.7,44.7-16.6,59.4c-16.8,14.3-41,16.9-60.9,6.6c-19.6-10.2-30.8-31-29.3-53.9c0.1-1.9-1-4.9-2.5-5.7
			C562.4,220.4,544.7,210.6,527,200.6z M459,159c-0.1,17.6,13.7,31.8,31.2,32c17.5,0.3,32.6-14.7,32.3-32.2
			c-0.2-17.3-14.5-31.3-32-31.3C472.8,127.6,459,141.3,459,159z M752.2,104.4c0.1,17.5,14.1,31.7,31.5,31.7
			c17.1,0,31.7-14.4,32-31.5c0.3-17.7-14.4-32.1-32.4-31.9C765.7,72.8,752.1,86.7,752.2,104.4z M637.2,210
			c-17.5,0-31.7,14.1-31.9,31.4c-0.1,17.1,14.3,31.7,31.5,32c17.7,0.3,32.2-14.2,32.1-32.2C668.8,223.6,654.9,209.9,637.2,210z
			 M375.6,323.8c-0.1-17.5-14.2-31.6-31.6-31.6c-17.2,0-31.7,14.4-32,31.5c-0.2,17.6,14.5,32.1,32.4,31.9
			C362.1,355.4,375.7,341.5,375.6,323.8z"/>
	</g>
</g>
<g>
	
		<pattern  id="SVGID_00000026135203812244631370000015260994182653617303_" xlink:href="#New_Pattern_Swatch_5" patternTransform="matrix(1 0 0 1 -50 -62)">
	</pattern>
	<path style="fill:url(#SVGID_00000026135203812244631370000015260994182653617303_);" d="M89.8,349.1h-80c-5.3,0-9.7-4.5-9.7-9.7
		c0-5.3,4.5-9.7,9.7-9.7h80v-78.8c0-5.7,4.5-10.2,10.1-10.2c5.7,0,10.2,4.5,10.2,10.2v78.8h80c5.3,0,9.7,4.5,9.7,9.7
		c0,5.3-4.5,9.7-9.7,9.7h-80v78.8c0,5.7-4.5,10.1-10.2,10.1c-5.7,0-10.1-4.5-10.1-10.1V349.1z"/>
</g>
</svg>
