<?xml version="1.0" encoding="utf-8"?>
<!-- Generator: Adobe Illustrator 28.0.0, SVG Export Plug-In . SVG Version: 6.00 Build 0)  -->
<svg version="1.1" id="Layer_1" xmlns="http://www.w3.org/2000/svg" xmlns:xlink="http://www.w3.org/1999/xlink" x="0px" y="0px"
	 viewBox="0 0 8.2 15.5" style="enable-background:new 0 0 8.2 15.5;" xml:space="preserve">
<style type="text/css">
	.st0{fill:none;}
	.st1{fill:#3B3E45;}
	.st2{fill:url(#SVGID_1_);}
	.st3{fill:url(#SVGID_00000076585372288093665000000016818546124747508136_);}
	.st4{fill:url(#SVGID_00000116221874298925276000000011461711371901451140_);}
	.st5{fill:url(#SVGID_00000046336602239127153560000011916283757885027259_);}
</style>
<pattern  x="-956" y="-532.5" width="67" height="67" patternUnits="userSpaceOnUse" id="New_Pattern_Swatch_6" viewBox="0 -67 67 67" style="overflow:visible;">
	<g>
		<rect y="-67" class="st0" width="67" height="67"/>
		<rect y="-67" class="st1" width="67" height="67"/>
	</g>
</pattern>
<g>
	<pattern  id="SVGID_1_" xlink:href="#New_Pattern_Swatch_6" patternTransform="matrix(1 0 0 1 -50 -62)">
	</pattern>
	<path class="st2" d="M5.4,0.7V1c0,0.4,0.3,0.7,0.7,0.7h1c0.1,0,0.1,0,0.2,0.1l0,0C7.5,1.9,7.5,2,7.5,2.1v12.4c0,0.1,0,0.1-0.1,0.2
		l0,0c-0.1,0.1-0.1,0.1-0.2,0.1H1c-0.1,0-0.1,0-0.2-0.1l0,0c-0.1-0.1-0.1-0.1-0.1-0.2V2.1c0-0.1,0-0.1,0.1-0.2C0.9,1.8,1,1.8,1,1.8
		h1c0.4,0,0.7-0.3,0.7-0.7V0.7H5.4 M5.9,0H2.4C2.3,0,2.2,0,2.2,0.1S2.1,0.2,2.1,0.3V1H1C0.7,1,0.5,1.2,0.3,1.3C0.1,1.6,0,1.8,0,2.1
		v12.4c0,0.3,0.1,0.5,0.3,0.7c0.2,0.2,0.4,0.3,0.7,0.3h6.2c0.3,0,0.5-0.1,0.7-0.3c0.2-0.2,0.3-0.4,0.3-0.7V2.1
		c0-0.3-0.1-0.5-0.3-0.7C7.8,1.1,7.5,1,7.2,1h-1V0.3c0-0.1,0-0.2-0.1-0.3C6,0,6,0,5.9,0L5.9,0z"/>
	
		<pattern  id="SVGID_00000144338075059130060980000004368276020237949339_" xlink:href="#New_Pattern_Swatch_6" patternTransform="matrix(1 0 0 1 -50 -62)">
	</pattern>
	<path style="fill:url(#SVGID_00000144338075059130060980000004368276020237949339_);" d="M7.1,7.3c0,0.3-0.3,0.6-0.6,0.6H1.7
		c-0.3,0-0.6-0.3-0.6-0.6V5.6C1.1,5.3,1.4,5,1.7,5h4.9c0.3,0,0.6,0.3,0.6,0.6L7.1,7.3L7.1,7.3z"/>
	
		<pattern  id="SVGID_00000088119882049320988160000007666368080012163217_" xlink:href="#New_Pattern_Swatch_6" patternTransform="matrix(1 0 0 1 -50 -62)">
	</pattern>
	<path style="fill:url(#SVGID_00000088119882049320988160000007666368080012163217_);" d="M7.1,10.5c0,0.3-0.3,0.6-0.6,0.6H1.7
		c-0.3,0-0.6-0.3-0.6-0.6V8.8c0-0.3,0.3-0.6,0.6-0.6h4.9c0.3,0,0.6,0.3,0.6,0.6L7.1,10.5L7.1,10.5z"/>
	
		<pattern  id="SVGID_00000150080034311322456970000015866333918558321569_" xlink:href="#New_Pattern_Swatch_6" patternTransform="matrix(1 0 0 1 -50 -62)">
	</pattern>
	<path style="fill:url(#SVGID_00000150080034311322456970000015866333918558321569_);" d="M7.1,13.7c0,0.3-0.3,0.6-0.6,0.6H1.7
		c-0.3,0-0.6-0.3-0.6-0.6V12c0-0.3,0.3-0.6,0.6-0.6h4.9c0.3,0,0.6,0.3,0.6,0.6L7.1,13.7L7.1,13.7z"/>
</g>
</svg>
