<?xml version="1.0" encoding="utf-8"?>
<!-- Generator: Adobe Illustrator 28.0.0, SVG Export Plug-In . SVG Version: 6.00 Build 0)  -->
<svg version="1.1" id="Layer_1" xmlns="http://www.w3.org/2000/svg" xmlns:xlink="http://www.w3.org/1999/xlink" x="0px" y="0px"
	 viewBox="0 0 38.1 37.8" style="enable-background:new 0 0 38.1 37.8;" xml:space="preserve">
<style type="text/css">
	.st0{fill:none;}
	.st1{fill:#838083;}
	.st2{fill:url(#SVGID_00000047040853351525222260000012566930700043124352_);}
	.st3{fill:url(#SVGID_00000000217504354404612500000003076097631220928442_);}
</style>
<pattern  x="-941" y="558.7" width="67" height="67" patternUnits="userSpaceOnUse" id="SVGID_0000016880677516695543005" viewBox="0 -67 67 67" style="overflow:visible;">
	<g>
		<rect y="-67" class="st0" width="67" height="67"/>
		<g>
			<rect y="-67" class="st0" width="67" height="67"/>
			<rect y="-67" class="st1" width="67" height="67"/>
		</g>
	</g>
</pattern>
<pattern  x="-941" y="558.7" width="67" height="67" patternUnits="userSpaceOnUse" id="SVGID_1_" viewBox="0 -67 67 67" style="overflow:visible;">
	<g>
		<rect y="-67" class="st0" width="67" height="67"/>
		<g>
			<rect y="-67" class="st0" width="67" height="67"/>
			<rect y="-67" class="st1" width="67" height="67"/>
		</g>
	</g>
</pattern>
<g>
	
		<pattern  id="SVGID_00000132797943971402478110000017646027566373234351_" xlink:href="#SVGID_1_" patternTransform="matrix(1 0 0 -1 -50 -17564.8008)">
	</pattern>
	<path style="fill:url(#SVGID_00000132797943971402478110000017646027566373234351_);" d="M20.1,6C14.5,3.9,3.6,0,3.4,0
		C2.1,0.3,2.3,2.8,2.3,4.9c0,10.1,0,20.9,0,30.7c-1.1-0.1-2.1,0-2.3,0.8c0,0.2,0,0.5,0,0.7c0.2,0.4,0.4,0.5,0.8,0.7
		c7.1,0,14.3,0,21.5,0c0-8.8,0-18.1,0-27c0-1.3,0-2.8-0.2-3.6C22.2,6.7,20.9,6.3,20.1,6z M14.5,11.1h2.3c0.6,0,1.1,0.5,1.1,1.1
		s-0.5,1.1-1.1,1.1h-2.3c-0.6,0-1.1-0.5-1.1-1.1S13.9,11.1,14.5,11.1z M14.5,15.5h2.3c0.6,0,1.1,0.5,1.1,1.1s-0.5,1.1-1.1,1.1h-2.3
		c-0.6,0-1.1-0.5-1.1-1.1S13.9,15.5,14.5,15.5z M14.5,20h2.3c0.6,0,1.1,0.5,1.1,1.1s-0.5,1.1-1.1,1.1h-2.3c-0.6,0-1.1-0.5-1.1-1.1
		S13.9,20,14.5,20z M11.2,35.6H6.6v-4.9c0-1.1,0.8-1.9,1.9-1.9h2.6L11.2,35.6L11.2,35.6z M10.2,26.7H7.9c-0.6,0-1.1-0.5-1.1-1.1
		s0.5-1.1,1.1-1.1h2.3c0.6,0,1.1,0.5,1.1,1.1C11.2,26.1,10.8,26.7,10.2,26.7z M10.2,22.2H7.9c-0.6,0-1.1-0.5-1.1-1.1S7.3,20,7.9,20
		h2.3c0.6,0,1.1,0.5,1.1,1.1C11.2,21.7,10.8,22.2,10.2,22.2z M10.2,17.8H7.9c-0.6,0-1.1-0.5-1.1-1.1s0.5-1.1,1.1-1.1h2.3
		c0.6,0,1.1,0.5,1.1,1.1C11.2,17.3,10.8,17.8,10.2,17.8z M10.2,13.3H7.9c-0.6,0-1.1-0.5-1.1-1.1s0.5-1.1,1.1-1.1h2.3
		c0.6,0,1.1,0.5,1.1,1.1C11.2,12.8,10.8,13.3,10.2,13.3z M14.5,24.4h2.3c0.6,0,1.1,0.5,1.1,1.1s-0.5,1.1-1.1,1.1h-2.3
		c-0.6,0-1.1-0.5-1.1-1.1S13.9,24.4,14.5,24.4z M18,35.6h-4.5v-6.8h2.6c1.1,0,1.9,0.8,1.9,1.9V35.6z"/>
	
		<pattern  id="SVGID_00000006706672139853459480000007913568880125696664_" xlink:href="#SVGID_0000016880677516695543005" patternTransform="matrix(1 0 0 -1 -50 -17564.8008)">
	</pattern>
	<path style="fill:url(#SVGID_00000006706672139853459480000007913568880125696664_);" d="M35.8,35.5c0-4.7,0-9.6,0-14.5
		c0-1.4-0.1-1.3-0.1-4.7c0-0.7-1.6-1-2.5-1.3c-2.9-1-5.7-1.9-8.5-2.8c0,8.5,0,17.1,0,25.6c4.2,0,8.4,0,12.6,0
		c0.4-0.2,0.6-0.4,0.8-0.8c0-0.2,0-0.4,0-0.6C37.8,35.5,36.9,35.5,35.8,35.5z M33.4,35.6h-2.2V31H29v4.6h-2.2v-5.7
		c0-0.6,0.5-1.1,1.1-1.1h4.4c0.6,0,1.1,0.5,1.1,1.1L33.4,35.6L33.4,35.6z"/>
</g>
</svg>
