<?xml version="1.0" encoding="utf-8"?>
<!-- Generator: Adobe Illustrator 28.0.0, SVG Export Plug-In . SVG Version: 6.00 Build 0)  -->
<svg version="1.1" id="Layer_1" xmlns="http://www.w3.org/2000/svg" xmlns:xlink="http://www.w3.org/1999/xlink" x="0px" y="0px"
	 viewBox="0 0 13.7 15.4" style="enable-background:new 0 0 13.7 15.4;" xml:space="preserve">
<style type="text/css">
	.st0{fill:none;}
	.st1{fill:#3B3E45;}
	.st2{fill:url(#SVGID_1_);}
	.st3{fill:url(#SVGID_00000146498644199972148120000006920538726685727886_);}
	.st4{fill:url(#SVGID_00000149366652315105537310000014134426449580986531_);}
	.st5{fill:url(#SVGID_00000084507749942055549960000000474456757683831200_);}
	.st6{fill:url(#SVGID_00000105386986684578132390000009367458972718003360_);}
	.st7{fill:url(#SVGID_00000060742962779393380070000006281299978692483767_);}
</style>
<pattern  x="-963.9" y="-528.2" width="67" height="67" patternUnits="userSpaceOnUse" id="New_Pattern_Swatch_6" viewBox="0 -67 67 67" style="overflow:visible;">
	<g>
		<rect y="-67" class="st0" width="67" height="67"/>
		<rect y="-67" class="st1" width="67" height="67"/>
	</g>
</pattern>
<g>
	<pattern  id="SVGID_1_" xlink:href="#New_Pattern_Swatch_6" patternTransform="matrix(1 0 0 1 -50 -62)">
	</pattern>
	<path class="st2" d="M2.4,4.2c0.6,0,1-0.5,1-1c0-0.6-0.5-1-1-1s-1,0.5-1,1C1.4,3.8,1.9,4.2,2.4,4.2z M2.4,2.7C2.7,2.7,3,2.9,3,3.2
		S2.7,3.8,2.4,3.8S1.9,3.5,1.9,3.2C1.9,2.9,2.1,2.7,2.4,2.7z"/>
	
		<pattern  id="SVGID_00000008844663916624408850000004235342134434203561_" xlink:href="#New_Pattern_Swatch_6" patternTransform="matrix(1 0 0 1 -50 -62)">
	</pattern>
	<path style="fill:url(#SVGID_00000008844663916624408850000004235342134434203561_);" d="M5.4,4.2c0.6,0,1-0.5,1-1c0-0.6-0.5-1-1-1
		c-0.6,0-1,0.5-1,1C4.3,3.8,4.8,4.2,5.4,4.2z M5.4,2.7c0.3,0,0.6,0.3,0.6,0.6S5.7,3.8,5.4,3.8S4.8,3.5,4.8,3.2
		C4.8,2.9,5.1,2.7,5.4,2.7z"/>
	
		<pattern  id="SVGID_00000077317198291601737250000015195674390180247717_" xlink:href="#New_Pattern_Swatch_6" patternTransform="matrix(1 0 0 1 -50 -62)">
	</pattern>
	<path style="fill:url(#SVGID_00000077317198291601737250000015195674390180247717_);" d="M8.3,4.2c0.6,0,1-0.5,1-1c0-0.6-0.5-1-1-1
		c-0.6,0-1,0.5-1,1C7.3,3.8,7.7,4.2,8.3,4.2z M8.3,2.7c0.3,0,0.6,0.3,0.6,0.6S8.6,3.8,8.3,3.8C8,3.8,7.7,3.5,7.7,3.2
		C7.7,2.9,8,2.7,8.3,2.7z"/>
	
		<pattern  id="SVGID_00000064328108588065386280000007832097473771803312_" xlink:href="#New_Pattern_Swatch_6" patternTransform="matrix(1 0 0 1 -50 -62)">
	</pattern>
	<path style="fill:url(#SVGID_00000064328108588065386280000007832097473771803312_);" d="M11.2,4.2c0.6,0,1-0.5,1-1
		c0-0.6-0.5-1-1-1s-1,0.4-1,1C10.2,3.8,10.7,4.2,11.2,4.2z M11.2,2.7c0.3,0,0.6,0.3,0.6,0.6s-0.3,0.6-0.6,0.6s-0.6-0.3-0.6-0.6
		C10.7,2.9,10.9,2.7,11.2,2.7z"/>
	
		<pattern  id="SVGID_00000063622865193725449290000016299509254085121956_" xlink:href="#New_Pattern_Swatch_6" patternTransform="matrix(1 0 0 1 -50 -62)">
	</pattern>
	<path style="fill:url(#SVGID_00000063622865193725449290000016299509254085121956_);" d="M13.3,1h-1.5V0.4c0-0.2-0.2-0.4-0.4-0.4
		H7.9C7.7,0,7.5,0.2,7.5,0.4V1H6.2V0.4C6.2,0.2,6,0,5.8,0H2.3C2.1,0,1.9,0.2,1.9,0.4V1H0.4C0.2,1,0,1.2,0,1.4V15
		c0,0.2,0.2,0.4,0.4,0.4h12.9c0.2,0,0.4-0.2,0.4-0.4V1.4C13.7,1.2,13.5,1,13.3,1z M12.9,12.8v1.8H0.8v-1.8H12.9z M12.9,5.3V12H0.8
		V5.3H12.9z M5.4,0.8V1H2.7V0.8C2.7,0.8,5.4,0.8,5.4,0.8z M8.3,1V0.8H11V1H8.3z M12.9,1.8v2.7H0.8V1.8H12.9z"/>
	
		<pattern  id="SVGID_00000107584831140403391200000005876434810018273966_" xlink:href="#New_Pattern_Swatch_6" patternTransform="matrix(1 0 0 1 -50 -62)">
	</pattern>
	<path style="fill:url(#SVGID_00000107584831140403391200000005876434810018273966_);" d="M2.4,11.1h8.8c0.1,0,0.2-0.1,0.2-0.2V6.2
		c0-0.1-0.1-0.2-0.2-0.2H2.4C2.3,5.9,2.2,6,2.2,6.2v4.8C2.2,11,2.3,11.1,2.4,11.1z M2.6,6.4H11v4.3H2.6V6.4z"/>
</g>
</svg>
