<?xml version="1.0" encoding="utf-8"?>
<!-- Generator: Adobe Illustrator 28.0.0, SVG Export Plug-In . SVG Version: 6.00 Build 0)  -->
<svg version="1.1" id="Layer_1" xmlns="http://www.w3.org/2000/svg" xmlns:xlink="http://www.w3.org/1999/xlink" x="0px" y="0px"
	 viewBox="0 0 11.7 18.4" style="enable-background:new 0 0 11.7 18.4;" xml:space="preserve">
<style type="text/css">
	.st0{fill-rule:evenodd;clip-rule:evenodd;fill:#23B8B8;}
</style>
<g>
	<g>
		<g>
			<path class="st0" d="M6.5,7.1c1,0,1.8,0,2.8,0c0.8,0,2.2-0.2,2.4,0.4C11.8,8,11.1,8.6,10.8,9c-2,2.8-3.9,5.4-6,8.2
				c-0.3,0.4-0.7,1.2-1.1,1.2c-1.1,0.1-0.3-1.6-0.1-2.1c0.5-1.6,1-3.4,1.5-4.9c-1-0.1-2.6,0-3.8-0.1c-0.6,0-1.2,0.1-1.3-0.4
				c-0.1-0.4,0.5-1,0.9-1.5c2-2.7,3.9-5.4,5.8-8C7,1,7.4,0.1,7.8,0C9-0.2,8.2,1.6,8,2.1C7.5,3.9,7,5.5,6.5,7.1z"/>
		</g>
	</g>
</g>
</svg>
