<?xml version="1.0" encoding="utf-8"?>
<!-- Generator: Adobe Illustrator 28.0.0, SVG Export Plug-In . SVG Version: 6.00 Build 0)  -->
<svg version="1.1" id="Layer_1" xmlns="http://www.w3.org/2000/svg" xmlns:xlink="http://www.w3.org/1999/xlink" x="0px" y="0px"
	 viewBox="0 0 12.9 18.3" style="enable-background:new 0 0 12.9 18.3;" xml:space="preserve">
<style type="text/css">
	.st0{fill:#EC6F70;}
</style>
<path class="st0" d="M8.6,18.3C8.5,18.3,8.5,18.3,8.6,18.3c1.3-1.4,2.5-3.1,2.2-6c-0.2-1.9-1.3-3.6-2.4-4.7C8,7.2,7.6,6.5,7.2,6.6
	c0.3,2.5-0.5,4.6-1.4,6.1c-0.3-1.1-0.6-2.2-1.5-2.7c-0.3,1.8-2.2,3.7-1.6,5.9c0.2,0.9,1.1,1.5,1.4,2.2c-2.6-1-4.8-3.4-3.8-7.3
	C1.2,7,4.7,4.1,5.1,0c2.7,2.9,7.4,6.1,7.8,11.4C13.2,15.3,11.5,17.4,8.6,18.3z"/>
</svg>
