<?xml version="1.0" encoding="utf-8"?>
<!-- Generator: Adobe Illustrator 28.0.0, SVG Export Plug-In . SVG Version: 6.00 Build 0)  -->
<svg version="1.1" id="Layer_1" xmlns="http://www.w3.org/2000/svg" xmlns:xlink="http://www.w3.org/1999/xlink" x="0px" y="0px"
	 viewBox="0 0 15.2 15.4" style="enable-background:new 0 0 15.2 15.4;" xml:space="preserve">
<style type="text/css">
	.st0{fill:none;}
	.st1{fill:#3B3E45;}
	.st2{fill:url(#SVGID_1_);}
	.st3{fill:url(#SVGID_00000154412509487426796770000015236151026817753511_);}
	.st4{fill:url(#SVGID_00000180331703111223182700000011465055205098270852_);}
	.st5{fill:url(#SVGID_00000176013527967752654040000001314147605483765893_);}
</style>
<pattern  x="-952.5" y="-532.5" width="67" height="67" patternUnits="userSpaceOnUse" id="New_Pattern_Swatch_6" viewBox="0 -67 67 67" style="overflow:visible;">
	<g>
		<rect y="-67" class="st0" width="67" height="67"/>
		<rect y="-67" class="st1" width="67" height="67"/>
	</g>
</pattern>
<g>
	<pattern  id="SVGID_1_" xlink:href="#New_Pattern_Swatch_6" patternTransform="matrix(1 0 0 1 -50 -62)">
	</pattern>
	<path class="st2" d="M14.7,4.2c-1.1-0.7-2.2-1.3-3.3-2c-1.1-0.7-2.2-1.3-3.3-2C7.9,0.2,7.7,0,7.6,0C7.5,0,7.2,0.2,7.1,0.2
		C5,1.4,2.9,2.7,0.9,3.9C0.6,4.1,0.3,4.2,0,4.5c0,0.1,0,0.1,0,0.2C0.1,5,0.4,4.9,0.6,4.9c0.1,2.7-0.1,5.9,0,8.8c0,0.4,0,0.9,0,1.2
		c0,0.3,0.4,0.4,0.6,0.6c3.6,0,7.5,0,11.2,0c0.5,0,1.1,0.1,1.6,0c0,0,0,0,0,0c0.2-0.1,0.5-0.3,0.5-0.5c0.1-0.3,0-0.8,0-1.2
		c0-2.9,0-5.9,0-8.7c0,0,0,0,0,0c0,0,0-0.1,0-0.1c0.2,0.1,0.5,0.1,0.6-0.1c0-0.1,0-0.1,0-0.2C15.1,4.4,14.9,4.3,14.7,4.2z
		 M10.5,14.3c-2.7,0-5.3,0-8,0c-0.2,0-0.6,0-0.7,0c-0.1-0.1-0.1-0.8-0.1-1.1c0-2.8,0-5.5,0-8.4c0.5-0.3,1-0.6,1.5-0.9
		c1.5-0.9,2.9-1.8,4.4-2.6c2,1.2,3.9,2.3,5.9,3.5c0,3,0,6,0,9.1c0,0.3,0,0.5-0.2,0.5C12.4,14.3,11.3,14.3,10.5,14.3z M12,14.8
		C12,14.8,12,14.8,12,14.8C12,14.8,12,14.8,12,14.8C12,14.8,12,14.8,12,14.8z"/>
	
		<pattern  id="SVGID_00000028287090408999634290000011648505473920838567_" xlink:href="#New_Pattern_Swatch_6" patternTransform="matrix(1 0 0 1 -50 -62)">
	</pattern>
	<path style="fill:url(#SVGID_00000028287090408999634290000011648505473920838567_);" d="M8.1,6.6C8,6.3,7.8,6,7.5,6
		c-0.4,0-0.2,0.4-0.1,0.6C7.6,7,7.8,7.3,7.8,7.9C7.7,8.7,7,9.4,6.8,10.2c-0.1,0.4,0,1,0.1,1.3c0.1,0.3,0.4,0.8,0.7,0.8
		c0.3,0,0.3-0.3,0.2-0.5c-0.1-0.3-0.4-0.5-0.4-0.9c-0.1-1.4,0.9-1.7,1-3.1C8.4,7.4,8.3,6.9,8.1,6.6z"/>
	
		<pattern  id="SVGID_00000098939544322650419340000012161151738046744747_" xlink:href="#New_Pattern_Swatch_6" patternTransform="matrix(1 0 0 1 -50 -62)">
	</pattern>
	<path style="fill:url(#SVGID_00000098939544322650419340000012161151738046744747_);" d="M4.8,6.8C4.7,6.5,4.5,5.9,4.1,6
		C3.8,6.3,4,6.6,4.2,6.8C4.3,7,4.4,7.2,4.4,7.5c0.1,0.8-0.3,1.2-0.6,1.7c-0.2,0.4-0.4,0.9-0.4,1.5c0,0.3,0.1,0.7,0.2,1
		c0.1,0.2,0.3,0.6,0.6,0.6c0.1,0,0.2-0.1,0.3-0.3c0-0.2-0.2-0.3-0.3-0.5C4.1,11.3,4,11,4,10.8C3.9,9.6,4.9,9,5,7.9
		C5,7.5,4.9,7.1,4.8,6.8z"/>
	
		<pattern  id="SVGID_00000073690275335572236290000004332383428014563228_" xlink:href="#New_Pattern_Swatch_6" patternTransform="matrix(1 0 0 1 -50 -62)">
	</pattern>
	<path style="fill:url(#SVGID_00000073690275335572236290000004332383428014563228_);" d="M10.8,6c-0.4,0.2-0.1,0.5,0,0.7
		C11,6.9,11,7,11.1,7.2c0.4,1.3-0.8,2-0.9,3.2c0,0.6,0.1,1,0.3,1.4c0.1,0.2,0.3,0.6,0.6,0.6c0.1,0,0.2-0.1,0.2-0.2
		c0.1-0.3-0.2-0.5-0.3-0.7c-0.6-1.3,0.6-2.2,0.8-3.3c0.1-1-0.2-1.7-0.6-2.1C11,6,10.9,6,10.8,6z"/>
</g>
</svg>
