<?xml version="1.0" encoding="utf-8"?>
<!-- Generator: Adobe Illustrator 28.0.0, SVG Export Plug-In . SVG Version: 6.00 Build 0)  -->
<svg version="1.1" id="Layer_1" xmlns="http://www.w3.org/2000/svg" xmlns:xlink="http://www.w3.org/1999/xlink" x="0px" y="0px"
	 viewBox="0 0 62.9 72.4" style="enable-background:new 0 0 62.9 72.4;" xml:space="preserve">
<style type="text/css">
	.st0{fill:none;}
	.st1{fill:#C2C2C4;}
	.st2{fill:url(#SVGID_1_);}
</style>
<pattern  x="-924.9" y="-503.5" width="67" height="67" patternUnits="userSpaceOnUse" id="New_Pattern_Swatch_5" viewBox="0 -67 67 67" style="overflow:visible;">
	<g>
		<rect y="-67" class="st0" width="67" height="67"/>
		<rect y="-67" class="st1" width="67" height="67"/>
	</g>
</pattern>
<g>
	<g>
		<path class="st1" d="M9.5,53.1c0-0.7,0.6-1.3,1.3-1.3c0.7,0,1.3,0.6,1.3,1.3V58h7v-4.9c0-0.7,0.6-1.3,1.3-1.3
			c0.7,0,1.3,0.6,1.3,1.3v12.3c0,0.7-0.6,1.3-1.3,1.3c-0.7,0-1.3-0.6-1.3-1.3v-5h-7v5c0,0.7-0.6,1.3-1.3,1.3c-0.7,0-1.3-0.6-1.3-1.3
			V53.1z"/>
		<path class="st1" d="M24.8,53.1c0-0.7,0.6-1.3,1.3-1.3c0.7,0,1.3,0.6,1.3,1.3v12.3c0,0.7-0.6,1.3-1.3,1.3c-0.7,0-1.3-0.6-1.3-1.3
			V53.1z"/>
		<path class="st1" d="M29.8,59.3L29.8,59.3c0-4.2,3.1-7.6,7.6-7.6c2.2,0,3.7,0.5,5,1.5c0.3,0.2,0.5,0.5,0.5,1.1
			c0,0.7-0.6,1.3-1.3,1.3c-0.3,0-0.6-0.1-0.8-0.3c-0.9-0.7-2-1.2-3.6-1.2c-2.7,0-4.8,2.4-4.8,5.2v0c0,3,2,5.2,5,5.2
			c1.4,0,2.6-0.4,3.5-1.1v-2.8h-2.9c-0.6,0-1.2-0.5-1.2-1.1c0-0.6,0.5-1.1,1.2-1.1h4.1c0.7,0,1.3,0.6,1.3,1.3v3.9
			c0,0.7-0.3,1.3-0.9,1.6c-1.3,0.8-3,1.6-5.2,1.6C32.8,66.9,29.8,63.6,29.8,59.3z"/>
		<path class="st1" d="M46.1,53.1c0-0.7,0.6-1.3,1.3-1.3c0.7,0,1.3,0.6,1.3,1.3V58h7v-4.9c0-0.7,0.6-1.3,1.3-1.3
			c0.7,0,1.3,0.6,1.3,1.3v12.3c0,0.7-0.6,1.3-1.3,1.3c-0.7,0-1.3-0.6-1.3-1.3v-5h-7v5c0,0.7-0.6,1.3-1.3,1.3c-0.7,0-1.3-0.6-1.3-1.3
			V53.1z"/>
	</g>
</g>
<g>
	<g>
		<g>
			<pattern  id="SVGID_1_" xlink:href="#New_Pattern_Swatch_5" patternTransform="matrix(1 0 0 1 9 -10)">
			</pattern>
			<path class="st2" d="M62.9,37.5c0,0.2-0.2,0.4-0.4,0.4c-20.4,0-41.3,0-61.7,0c0,0,0,0,0,0c-0.5,0-0.8-0.4-0.8-0.8l0-1.4
				c0-0.5,0.4-0.8,0.8-0.8h3.3C4.6,34.8,5,34.4,5,34V18.3c0-0.5,0.4-0.8,0.8-0.8h13.3c0.5,0,0.8,0.4,0.8,0.8v15.6
				c0,0.5,0.4,0.8,0.8,0.8h3.3c0.5,0,0.8-0.4,0.8-0.8V10.8c0-0.5,0.4-0.8,0.8-0.8h13.3c0.5,0,0.8,0.4,0.8,0.8v23.1
				c0,0.5,0.4,0.8,0.8,0.8h3.3c0.5,0,0.8-0.4,0.8-0.8V0.8c0-0.5,0.4-0.8,0.8-0.8h13.3c0.5,0,0.8,0.4,0.8,0.8V34
				c0,0.5,0.4,0.8,0.8,0.8h1.7c0.2,0,0.4,0.2,0.4,0.4L62.9,37.5z"/>
		</g>
	</g>
</g>
</svg>
