<?xml version="1.0" encoding="utf-8"?>
<!-- Generator: Adobe Illustrator 28.0.0, SVG Export Plug-In . SVG Version: 6.00 Build 0)  -->
<svg version="1.1" id="Layer_1" xmlns="http://www.w3.org/2000/svg" xmlns:xlink="http://www.w3.org/1999/xlink" x="0px" y="0px"
	 viewBox="0 0 15.3 15.4" style="enable-background:new 0 0 15.3 15.4;" xml:space="preserve">
<style type="text/css">
	.st0{fill:none;}
	.st1{fill:#3B3E45;}
	.st2{fill:url(#SVGID_1_);}
	.st3{fill:url(#SVGID_00000142169017763085900540000010348794693296165803_);}
	.st4{fill:url(#SVGID_00000005267308591514021060000011097328134834063273_);}
	.st5{fill:url(#SVGID_00000058567460863952110350000002046249579270555578_);}
	.st6{fill:url(#SVGID_00000084519300559983618250000018003556508944108933_);}
</style>
<pattern  x="-963.1" y="-528.3" width="67" height="67" patternUnits="userSpaceOnUse" id="New_Pattern_Swatch_6" viewBox="0 -67 67 67" style="overflow:visible;">
	<g>
		<rect y="-67" class="st0" width="67" height="67"/>
		<rect y="-67" class="st1" width="67" height="67"/>
	</g>
</pattern>
<g>
	<pattern  id="SVGID_1_" xlink:href="#New_Pattern_Swatch_6" patternTransform="matrix(1 0 0 1 -50 -62)">
	</pattern>
	<path class="st2" d="M13.1,2.3c1.1,1.2,2,2.7,2.2,4.9c0,0.3,0,0.6,0,1c-0.2,2.2-1,3.8-2.2,5c-1.2,1.2-2.8,2.1-5,2.2
		c-0.3,0-0.6,0-0.8,0c-2.1-0.2-3.7-1-5-2.2C1.1,11.9,0.2,10.3,0,8.3c0-0.3,0-0.8,0-1.2C0.2,5,1,3.5,2.2,2.3c1-1,2.3-1.8,4-2.2
		C6.7,0,7.6,0,8.3,0C10.4,0.2,11.9,1.2,13.1,2.3z M6.5,1.3C5,1.5,3.9,2.2,3,3.1c-1,1-1.7,2.3-1.8,4.2c0,0.2,0,0.4,0,0.6
		c0.1,1.7,0.8,3.1,1.8,4.2c1,1,2.3,1.8,4,2c2.4,0.2,4.2-0.8,5.4-2c1.2-1.2,1.9-3,1.8-5.2c-0.1-0.8-0.4-1.6-0.7-2.2
		c-1-1.9-2.8-3.3-5.4-3.5c-0.3,0-0.7,0-0.8,0C6.9,1.2,6.7,1.2,6.5,1.3z"/>
	
		<pattern  id="SVGID_00000054985076555540487540000008207261584802907028_" xlink:href="#New_Pattern_Swatch_6" patternTransform="matrix(1 0 0 1 -50 -62)">
	</pattern>
	<path style="fill:url(#SVGID_00000054985076555540487540000008207261584802907028_);" d="M9.1,5c0,0.3,0,0.6,0,0.9
		c0.6,0.1,1,0.4,1.3,0.8c0.6,0.1,1.2,0,1.8,0c0.1-0.2,0.2-0.5,0.6-0.4c0.2,0.2,0.1,0.6,0.1,1c0,0.4,0,0.8,0,1.2
		c-0.1,0.2-0.4,0.3-0.6,0.1c-0.1-0.1-0.1-0.2-0.1-0.4c-0.6,0-1.2,0-1.9,0C10,8.6,9.5,8.9,8.8,8.9C8.1,9,7.5,8.6,7.1,8.3
		C6.9,8.4,6.7,8.4,6.6,8.6C6.4,8.8,6.5,9.3,6.4,9.7c-0.4,0-0.8,0-1.3,0c0-1.5,0.4-2.5,1.7-2.7c0.3-0.6,0.8-1,1.5-1.1
		c0-0.3,0-0.6,0-0.9C8.1,5,7.8,4.9,7.5,5C7.3,5.1,7.3,5.3,7,5.4C6.1,5.6,5.9,4.1,6.8,4c0.4,0,0.5,0.2,0.7,0.3c0.8,0,1.6,0,2.3,0
		c0.3-0.6,1.3-0.3,1.3,0.3c0,0.5-0.5,0.9-1,0.6C10,5.2,10,5,9.8,5C9.6,5,9.3,5,9.1,5z"/>
	
		<pattern  id="SVGID_00000041976262553731925430000017729188422500642958_" xlink:href="#New_Pattern_Swatch_6" patternTransform="matrix(1 0 0 1 -50 -62)">
	</pattern>
	<path style="fill:url(#SVGID_00000041976262553731925430000017729188422500642958_);" d="M2.9,4.4c0.1,0,0.3,0,0.5,0
		c0.6,0.4,0.3,1.5,0,2c-0.1,0.5,0.1,0.7,0.3,1c-0.2,0-0.3,0-0.5,0C3,7.3,2.9,6.9,2.9,6.6c0-0.6,0.5-1.1,0.4-1.7
		C3.2,4.7,3,4.6,2.9,4.4z"/>
	
		<pattern  id="SVGID_00000150790579551663170730000007801838009686514334_" xlink:href="#New_Pattern_Swatch_6" patternTransform="matrix(1 0 0 1 -50 -62)">
	</pattern>
	<path style="fill:url(#SVGID_00000150790579551663170730000007801838009686514334_);" d="M4.4,4.4c0.1,0,0.4,0,0.5,0
		c0.2,0.3,0.4,0.4,0.3,0.9c0,0.4-0.3,0.8-0.4,1.2c-0.1,0.5,0.2,0.7,0.3,1c-0.2,0-0.3,0-0.5,0C4.6,7.2,4.4,7.1,4.4,6.8
		C4.3,6.2,4.8,5.6,4.8,5C4.8,4.8,4.6,4.6,4.4,4.4z"/>
	
		<pattern  id="SVGID_00000054952628824261844820000012740272665972405143_" xlink:href="#New_Pattern_Swatch_6" patternTransform="matrix(1 0 0 1 -50 -62)">
	</pattern>
	<path style="fill:url(#SVGID_00000054952628824261844820000012740272665972405143_);" d="M5.8,10.1c0.2,0.3,0.7,0.8,0.6,1.3
		c-0.1,0.4-1,0.5-1.2,0.1C5.2,10.8,5.6,10.5,5.8,10.1z"/>
</g>
</svg>
