<?xml version="1.0" encoding="utf-8"?>
<!-- Generator: Adobe Illustrator 28.0.0, SVG Export Plug-In . SVG Version: 6.00 Build 0)  -->
<svg version="1.1" id="Layer_1" xmlns="http://www.w3.org/2000/svg" xmlns:xlink="http://www.w3.org/1999/xlink" x="0px" y="0px"
	 viewBox="0 0 62.9 66.9" style="enable-background:new 0 0 62.9 66.9;" xml:space="preserve">
<style type="text/css">
	.st0{fill:none;}
	.st1{fill:#C2C2C4;}
	.st2{fill:url(#SVGID_1_);}
</style>
<pattern  x="-926" y="-503.5" width="67" height="67" patternUnits="userSpaceOnUse" id="New_Pattern_Swatch_5" viewBox="0 -67 67 67" style="overflow:visible;">
	<g>
		<rect y="-67" class="st0" width="67" height="67"/>
		<rect y="-67" class="st1" width="67" height="67"/>
	</g>
</pattern>
<g>
	<g>
		<path class="st1" d="M9.1,53.1c0-0.7,0.6-1.3,1.3-1.3c0.7,0,1.3,0.6,1.3,1.3v11.2h6.7c0.7,0,1.2,0.5,1.2,1.2s-0.5,1.2-1.2,1.2
			h-7.9c-0.7,0-1.3-0.6-1.3-1.3V53.1z"/>
		<path class="st1" d="M19.8,59.3L19.8,59.3c0-4.2,3.2-7.6,7.7-7.6s7.7,3.4,7.7,7.6v0c0,4.1-3.2,7.6-7.7,7.6S19.8,63.4,19.8,59.3z
			 M32.4,59.3L32.4,59.3c0-2.9-2.1-5.3-5-5.3s-5,2.3-5,5.2v0c0,2.9,2.1,5.2,5,5.2S32.4,62.2,32.4,59.3z"/>
		<path class="st1" d="M36,53.6c-0.1-0.1-0.1-0.3-0.1-0.5c0-0.7,0.6-1.3,1.3-1.3c0.6,0,1.1,0.4,1.3,0.9l3.4,10.1l3.3-10.1
			c0.2-0.6,0.7-1,1.3-1h0.2c0.7,0,1.1,0.4,1.3,1l3.3,10.1l3.4-10.1c0.2-0.5,0.6-0.9,1.3-0.9c0.7,0,1.3,0.5,1.3,1.2
			c0,0.2-0.1,0.4-0.1,0.5l-4.3,12.2c-0.2,0.7-0.7,1.1-1.3,1.1h-0.3c-0.6,0-1.1-0.4-1.3-1.1l-3.3-9.6l-3.3,9.6
			c-0.2,0.7-0.7,1.1-1.3,1.1h-0.3c-0.6,0-1.1-0.4-1.3-1.1L36,53.6z"/>
	</g>
</g>
<g>
	<g>
		<g>
			<pattern  id="SVGID_1_" xlink:href="#New_Pattern_Swatch_5" patternTransform="matrix(1 0 0 1 9 -10)">
			</pattern>
			<path class="st2" d="M62.9,37.5c0,0.2-0.2,0.4-0.4,0.4c-20.4,0-41.3,0-61.7,0c0,0,0,0,0,0c-0.5,0-0.8-0.4-0.8-0.8l0-1.4
				c0-0.5,0.4-0.8,0.8-0.8h3.3C4.6,34.8,5,34.4,5,34V18.3c0-0.5,0.4-0.8,0.8-0.8h13.3c0.5,0,0.8,0.4,0.8,0.8v15.6
				c0,0.5,0.4,0.8,0.8,0.8h3.3c0.5,0,0.8-0.4,0.8-0.8V10.8c0-0.5,0.4-0.8,0.8-0.8h13.3c0.5,0,0.8,0.4,0.8,0.8v23.1
				c0,0.5,0.4,0.8,0.8,0.8h3.3c0.5,0,0.8-0.4,0.8-0.8V0.8c0-0.5,0.4-0.8,0.8-0.8h13.3c0.5,0,0.8,0.4,0.8,0.8V34
				c0,0.5,0.4,0.8,0.8,0.8h1.7c0.2,0,0.4,0.2,0.4,0.4L62.9,37.5z M57,34V3.7c0-0.5-0.4-0.8-0.8-0.8h-7.5c-0.5,0-0.8,0.4-0.8,0.8V34
				c0,0.5,0.4,0.8,0.8,0.8h7.5C56.6,34.8,57,34.4,57,34z M37,34V13.7c0-0.5-0.4-0.8-0.8-0.8h-7.5c-0.5,0-0.8,0.4-0.8,0.8V34
				c0,0.5,0.4,0.8,0.8,0.8h7.5C36.7,34.8,37,34.4,37,34z"/>
		</g>
	</g>
</g>
</svg>
