<?xml version="1.0" encoding="utf-8"?>
<!-- Generator: Adobe Illustrator 28.0.0, SVG Export Plug-In . SVG Version: 6.00 Build 0)  -->
<svg version="1.1" id="Layer_1" xmlns="http://www.w3.org/2000/svg" xmlns:xlink="http://www.w3.org/1999/xlink" x="0px" y="0px"
	 viewBox="0 0 81.5 66.8" style="enable-background:new 0 0 81.5 66.8;" xml:space="preserve">
<style type="text/css">
	.st0{fill:none;}
	.st1{fill:#C2C2C4;}
	.st2{fill:url(#SVGID_00000029043907826456558780000017791357817384176771_);}
	.st3{fill:url(#SVGID_00000163047030634564854860000001964185888817089969_);}
	.st4{fill:url(#SVGID_00000020373508525231419790000003231281526422500754_);}
	.st5{fill:url(#SVGID_00000098918868430030405430000008038805816358012595_);}
	.st6{fill:url(#SVGID_00000042706686019290210190000016730297603967888566_);}
	.st7{fill:url(#SVGID_00000032638104163927464970000011961718124354229152_);}
	.st8{fill:url(#SVGID_00000147915789857891705330000010409896345165603970_);}
</style>
<pattern  y="66.8" width="67" height="67" patternUnits="userSpaceOnUse" id="SVGID_1_" viewBox="0 -67 67 67" style="overflow:visible;">
	<g>
		<rect y="-67" class="st0" width="67" height="67"/>
		<g>
			<rect y="-67" class="st0" width="67" height="67"/>
			<rect y="-67" class="st1" width="67" height="67"/>
		</g>
	</g>
</pattern>
<g>
	<g>
		<g>
			
				<pattern  id="SVGID_00000004532456838264307450000000629746442116462508_" xlink:href="#SVGID_1_" patternTransform="matrix(1 0 0 -1 -858.8 -15020.0996)">
			</pattern>
			<path style="fill:url(#SVGID_00000004532456838264307450000000629746442116462508_);" d="M72.3,37.5c0,0.2-0.2,0.4-0.4,0.4
				c-20.4,0-41.3,0-61.7,0l0,0c-0.5,0-0.8-0.4-0.8-0.8v-1.4c0-0.5,0.4-0.8,0.8-0.8h3.3c0.5,0,0.8-0.4,0.8-0.8V18.3
				c0-0.5,0.4-0.8,0.8-0.8h13.3c0.5,0,0.8,0.4,0.8,0.8v15.6c0,0.5,0.4,0.8,0.8,0.8h3.3c0.5,0,0.8-0.4,0.8-0.8V10.8
				c0-0.5,0.4-0.8,0.8-0.8h13.3c0.5,0,0.8,0.4,0.8,0.8v23.1c0,0.5,0.4,0.8,0.8,0.8h3.3c0.5,0,0.8-0.4,0.8-0.8V0.8
				c0-0.5,0.4-0.8,0.8-0.8H68c0.5,0,0.8,0.4,0.8,0.8V34c0,0.5,0.4,0.8,0.8,0.8h1.7c0.2,0,0.4,0.2,0.4,0.4L72.3,37.5z M66.4,34V3.7
				c0-0.5-0.4-0.8-0.8-0.8h-7.5c-0.5,0-0.8,0.4-0.8,0.8V34c0,0.5,0.4,0.8,0.8,0.8h7.5C66.1,34.8,66.4,34.4,66.4,34z"/>
		</g>
	</g>
</g>
<g>
	<g>
		
			<pattern  id="SVGID_00000065752726276768884700000018382435638964614054_" xlink:href="#SVGID_1_" patternTransform="matrix(1 0 0 -1 -858.8 -15020.0996)">
		</pattern>
		<path style="fill:url(#SVGID_00000065752726276768884700000018382435638964614054_);" d="M0.2,52.8c0-0.7,0.6-1.3,1.3-1.3h0.3
			c0.6,0,1,0.3,1.2,0.7l4.6,7.1l4.6-7.2c0.3-0.5,0.7-0.7,1.2-0.7h0.3c0.8,0,1.3,0.6,1.3,1.3v12.6c0,0.7-0.6,1.3-1.3,1.3
			c-0.7,0-1.3-0.6-1.3-1.3v-9l-3.7,5.5c-0.3,0.4-0.6,0.7-1.1,0.7c-0.5,0-0.8-0.3-1.1-0.7l-3.7-5.5v9c0,0.7-0.6,1.3-1.3,1.3
			s-1.3-0.6-1.3-1.3V52.8z"/>
		
			<pattern  id="SVGID_00000080181609554034095750000004899377226767143835_" xlink:href="#SVGID_1_" patternTransform="matrix(1 0 0 -1 -858.8 -15020.0996)">
		</pattern>
		<path style="fill:url(#SVGID_00000080181609554034095750000004899377226767143835_);" d="M17.5,65.3V52.9c0-0.8,0.6-1.3,1.3-1.3
			h8.7c0.6,0,1.2,0.5,1.2,1.2c0,0.7-0.5,1.2-1.2,1.2h-7.4v3.9h6.5c0.6,0,1.2,0.5,1.2,1.2c0,0.6-0.5,1.2-1.2,1.2h-6.5v4h7.5
			c0.6,0,1.2,0.5,1.2,1.2c0,0.7-0.5,1.2-1.2,1.2h-8.9C18.1,66.6,17.5,66,17.5,65.3z"/>
		
			<pattern  id="SVGID_00000134209488243509712450000016960269476423508116_" xlink:href="#SVGID_1_" patternTransform="matrix(1 0 0 -1 -858.8 -15020.0996)">
		</pattern>
		<path style="fill:url(#SVGID_00000134209488243509712450000016960269476423508116_);" d="M30.6,52.9c0-0.8,0.6-1.3,1.3-1.3h4.3
			c4.7,0,8,3.2,8,7.5v0c0,4.2-3.3,7.5-8,7.5H32c-0.8,0-1.3-0.6-1.3-1.3V52.9z M36.2,64.2c3.2,0,5.2-2.1,5.2-5.1v0
			c0-2.9-2.1-5.1-5.2-5.1h-3v10.2H36.2z"/>
		
			<pattern  id="SVGID_00000047052597896848787080000006247767973506755999_" xlink:href="#SVGID_1_" patternTransform="matrix(1 0 0 -1 -858.8 -15020.0996)">
		</pattern>
		<path style="fill:url(#SVGID_00000047052597896848787080000006247767973506755999_);" d="M46.3,52.7c0-0.7,0.6-1.3,1.3-1.3
			c0.7,0,1.3,0.6,1.3,1.3v12.6c0,0.7-0.6,1.3-1.3,1.3c-0.8,0-1.3-0.6-1.3-1.3V52.7z"/>
		
			<pattern  id="SVGID_00000129187476523423309240000002213098554476222086_" xlink:href="#SVGID_1_" patternTransform="matrix(1 0 0 -1 -858.8 -15020.0996)">
		</pattern>
		<path style="fill:url(#SVGID_00000129187476523423309240000002213098554476222086_);" d="M51.4,60.2v-7.5c0-0.7,0.6-1.3,1.3-1.3
			c0.7,0,1.3,0.6,1.3,1.3v7.3c0,2.8,1.4,4.3,3.8,4.3c2.3,0,3.8-1.4,3.8-4.2v-7.5c0-0.7,0.6-1.3,1.3-1.3c0.7,0,1.3,0.6,1.3,1.3v7.3
			c0,4.5-2.5,6.7-6.5,6.7C53.9,66.8,51.4,64.6,51.4,60.2z"/>
		
			<pattern  id="SVGID_00000106864439820722321230000011171507447431861935_" xlink:href="#SVGID_1_" patternTransform="matrix(1 0 0 -1 -858.8 -15020.0996)">
		</pattern>
		<path style="fill:url(#SVGID_00000106864439820722321230000011171507447431861935_);" d="M66.6,52.8c0-0.7,0.6-1.3,1.3-1.3h0.3
			c0.6,0,1,0.3,1.2,0.7l4.6,7.1l4.6-7.2c0.3-0.5,0.7-0.7,1.2-0.7h0.3c0.8,0,1.3,0.6,1.3,1.3v12.6c0,0.7-0.6,1.3-1.3,1.3
			c-0.7,0-1.3-0.6-1.3-1.3v-9l-3.7,5.5c-0.3,0.4-0.6,0.7-1.1,0.7c-0.5,0-0.8-0.3-1.1-0.7l-3.7-5.5v9c0,0.7-0.6,1.3-1.3,1.3
			s-1.3-0.6-1.3-1.3V52.8z"/>
	</g>
</g>
</svg>
