<?xml version="1.0" encoding="utf-8"?>
<!-- Generator: Adobe Illustrator 28.0.0, SVG Export Plug-In . SVG Version: 6.00 Build 0)  -->
<svg version="1.1" id="Layer_1" xmlns="http://www.w3.org/2000/svg" xmlns:xlink="http://www.w3.org/1999/xlink" x="0px" y="0px"
	 viewBox="0 0 65.4 36.4" style="enable-background:new 0 0 65.4 36.4;" xml:space="preserve">
<style type="text/css">
	.st0{fill:none;}
	.st1{fill:#838083;}
	.st2{fill:url(#SVGID_00000128475686900484569570000005076918061443301045_);}
	.st3{fill:url(#SVGID_00000009584682424335432650000004465458150720129417_);}
	.st4{fill:url(#SVGID_00000165921721359250426730000014595196494289868179_);}
	.st5{fill:url(#SVGID_00000162321321202432151930000004212235519784317578_);}
	.st6{fill:url(#SVGID_00000165223471836144038290000003971242269290815105_);}
	.st7{fill:url(#SVGID_00000070092806760395259130000014892915057345244592_);}
	.st8{fill:url(#SVGID_00000028294380519392187220000003613732735045997464_);}
</style>
<pattern  x="-927.4" y="558" width="67" height="67" patternUnits="userSpaceOnUse" id="SVGID_0000002832380559498090988" viewBox="0 -67 67 67" style="overflow:visible;">
	<g>
		<rect y="-67" class="st0" width="67" height="67"/>
		<g>
			<rect y="-67" class="st0" width="67" height="67"/>
			<rect y="-67" class="st1" width="67" height="67"/>
		</g>
	</g>
</pattern>
<pattern  x="-927.4" y="558" width="67" height="67" patternUnits="userSpaceOnUse" id="SVGID_0000004992056444981632772" viewBox="0 -67 67 67" style="overflow:visible;">
	<g>
		<rect y="-67" class="st0" width="67" height="67"/>
		<g>
			<rect y="-67" class="st0" width="67" height="67"/>
			<rect y="-67" class="st1" width="67" height="67"/>
		</g>
	</g>
</pattern>
<pattern  x="-927.4" y="558" width="67" height="67" patternUnits="userSpaceOnUse" id="SVGID_0000005567279572105840278" viewBox="0 -67 67 67" style="overflow:visible;">
	<g>
		<rect y="-67" class="st0" width="67" height="67"/>
		<g>
			<rect y="-67" class="st0" width="67" height="67"/>
			<rect y="-67" class="st1" width="67" height="67"/>
		</g>
	</g>
</pattern>
<pattern  x="-927.4" y="558" width="67" height="67" patternUnits="userSpaceOnUse" id="SVGID_0000008162005493561973355" viewBox="0 -67 67 67" style="overflow:visible;">
	<g>
		<rect y="-67" class="st0" width="67" height="67"/>
		<g>
			<rect y="-67" class="st0" width="67" height="67"/>
			<rect y="-67" class="st1" width="67" height="67"/>
		</g>
	</g>
</pattern>
<pattern  x="-927.4" y="558" width="67" height="67" patternUnits="userSpaceOnUse" id="SVGID_0000009098999691038011484" viewBox="0 -67 67 67" style="overflow:visible;">
	<g>
		<rect y="-67" class="st0" width="67" height="67"/>
		<g>
			<rect y="-67" class="st0" width="67" height="67"/>
			<rect y="-67" class="st1" width="67" height="67"/>
		</g>
	</g>
</pattern>
<pattern  x="-927.4" y="558" width="67" height="67" patternUnits="userSpaceOnUse" id="SVGID_0000014358657029991139192" viewBox="0 -67 67 67" style="overflow:visible;">
	<g>
		<rect y="-67" class="st0" width="67" height="67"/>
		<g>
			<rect y="-67" class="st0" width="67" height="67"/>
			<rect y="-67" class="st1" width="67" height="67"/>
		</g>
	</g>
</pattern>
<pattern  x="-927.4" y="558" width="67" height="67" patternUnits="userSpaceOnUse" id="SVGID_1_" viewBox="0 -67 67 67" style="overflow:visible;">
	<g>
		<rect y="-67" class="st0" width="67" height="67"/>
		<g>
			<rect y="-67" class="st0" width="67" height="67"/>
			<rect y="-67" class="st1" width="67" height="67"/>
		</g>
	</g>
</pattern>
<g>
	
		<pattern  id="SVGID_00000007427676024761798130000000959510197117805980_" xlink:href="#SVGID_1_" patternTransform="matrix(1 0 0 -1 -50 -17566.1992)">
	</pattern>
	<path style="fill:url(#SVGID_00000007427676024761798130000000959510197117805980_);" d="M47.2,36.4c-10,0-18.2-8.1-18.2-18.2
		C29,8.2,37.1,0,47.2,0c10,0,18.2,8.1,18.2,18.2C65.3,28.2,57.2,36.4,47.2,36.4z M47.2,2.3c-8.8,0-15.9,7.1-15.9,15.9
		c0,8.8,7.1,15.9,15.9,15.9c8.8,0,15.9-7.1,15.9-15.9C63.1,9.4,55.9,2.3,47.2,2.3z"/>
	
		<pattern  id="SVGID_00000134933280506604910740000008077394258398661030_" xlink:href="#SVGID_0000002832380559498090988" patternTransform="matrix(1 0 0 -1 -50 -17566.1992)">
	</pattern>
	<polygon style="fill:url(#SVGID_00000134933280506604910740000008077394258398661030_);" points="41.9,21.6 39.8,23.7 41.8,25.7 
		54.6,12.9 52.6,10.9 41.8,21.6 	"/>
	
		<pattern  id="SVGID_00000117646661704992817510000004281574113643080112_" xlink:href="#SVGID_0000004992056444981632772" patternTransform="matrix(1 0 0 -1 -50 -17566.1992)">
	</pattern>
	<polygon style="fill:url(#SVGID_00000117646661704992817510000004281574113643080112_);" points="50.6,23.6 52.6,25.7 54.6,23.7 
		41.8,10.9 39.8,12.9 50.6,23.7 	"/>
</g>
<g>
	
		<pattern  id="SVGID_00000128450281911979829140000011782871710258483072_" xlink:href="#SVGID_0000005567279572105840278" patternTransform="matrix(1 0 0 -1 -50 -17566.1992)">
	</pattern>
	<path style="fill:url(#SVGID_00000128450281911979829140000011782871710258483072_);" d="M12.6,2.1v0.7c0,0.9,0.7,1.7,1.7,1.7h2.4
		c0.1,0,0.3,0,0.4,0.2l0,0c0.1,0.1,0.2,0.3,0.2,0.4v28.6c0,0.1,0,0.3-0.2,0.4l0,0c-0.1,0.1-0.3,0.2-0.4,0.2H2.4
		c-0.1,0-0.3,0-0.4-0.2l0,0c-0.1-0.1-0.2-0.3-0.2-0.4V5.1c0-0.1,0-0.3,0.2-0.5s0.3-0.2,0.5-0.2h2.4c0.9,0,1.7-0.7,1.7-1.7V2.1
		L12.6,2.1 M13.6,0.3h-8c-0.2,0-0.4,0-0.6,0.2C4.9,0.6,4.8,0.8,4.8,1.1v1.6H2.4c-0.6,0-1.2,0.2-1.7,0.7C0.3,3.9,0,4.4,0,5.1v28.6
		c0,0.6,0.2,1.2,0.7,1.7s1,0.7,1.7,0.7h14.3c0.6,0,1.2-0.2,1.7-0.7c0.5-0.4,0.7-1,0.7-1.7V5.1c0-0.6-0.2-1.2-0.7-1.7
		c-0.4-0.5-1-0.7-1.7-0.7h-2.4V1.1c0-0.2-0.1-0.4-0.2-0.6C14,0.4,13.8,0.3,13.6,0.3L13.6,0.3z"/>
	
		<pattern  id="SVGID_00000090261881337315783470000011423710293948071580_" xlink:href="#SVGID_0000008162005493561973355" patternTransform="matrix(1 0 0 -1 -50 -17566.1992)">
	</pattern>
	<path style="fill:url(#SVGID_00000090261881337315783470000011423710293948071580_);" d="M16.5,17.3c0,0.7-0.6,1.3-1.3,1.3H3.9
		c-0.7,0-1.3-0.6-1.3-1.3v-4c0-0.7,0.6-1.3,1.3-1.3h11.3c0.7,0,1.3,0.6,1.3,1.3V17.3L16.5,17.3z"/>
	
		<pattern  id="SVGID_00000067933317793611807980000010915679976223052727_" xlink:href="#SVGID_0000009098999691038011484" patternTransform="matrix(1 0 0 -1 -50 -17566.1992)">
	</pattern>
	<path style="fill:url(#SVGID_00000067933317793611807980000010915679976223052727_);" d="M16.5,24.6c0,0.7-0.6,1.3-1.3,1.3H3.9
		c-0.7,0-1.3-0.6-1.3-1.3v-4c0-0.7,0.6-1.3,1.3-1.3h11.3c0.7,0,1.3,0.6,1.3,1.3V24.6L16.5,24.6z"/>
	
		<pattern  id="SVGID_00000094608897940988723410000017251457862410507439_" xlink:href="#SVGID_0000014358657029991139192" patternTransform="matrix(1 0 0 -1 -50 -17566.1992)">
	</pattern>
	<path style="fill:url(#SVGID_00000094608897940988723410000017251457862410507439_);" d="M16.5,31.9c0,0.7-0.6,1.3-1.3,1.3H3.9
		c-0.7,0-1.3-0.6-1.3-1.3v-4c0-0.7,0.6-1.3,1.3-1.3h11.3c0.7,0,1.3,0.6,1.3,1.3V31.9L16.5,31.9z"/>
</g>
</svg>
