<?xml version="1.0" encoding="utf-8"?>
<!-- Generator: Adobe Illustrator 28.0.0, SVG Export Plug-In . SVG Version: 6.00 Build 0)  -->
<svg version="1.1" id="Layer_1" xmlns="http://www.w3.org/2000/svg" xmlns:xlink="http://www.w3.org/1999/xlink" x="0px" y="0px"
	 viewBox="0 0 88.5 38.2" style="enable-background:new 0 0 88.5 38.2;" xml:space="preserve">
<style type="text/css">
	.st0{fill:none;}
	.st1{fill:#838083;}
	.st2{fill:url(#SVGID_00000121968727372484359220000013134065581112352666_);}
	.st3{fill:url(#SVGID_00000115511378414324088760000000289098454461099193_);}
	.st4{fill:url(#SVGID_00000050645821388541619550000002530015839324926345_);}
	.st5{fill:url(#SVGID_00000072262342413461833220000012480462074575661962_);}
	.st6{fill:url(#SVGID_00000134242811118995977000000016329557990160641436_);}
	.st7{fill:url(#SVGID_00000179604108191526945050000013563859782324377738_);}
	.st8{fill:url(#SVGID_00000016045173514457409760000011488890526916561058_);}
	.st9{fill:url(#SVGID_00000160148484747568886950000014362611296946724026_);}
	.st10{fill:url(#SVGID_00000095339636607704627770000004392303945329207198_);}
	.st11{fill:url(#SVGID_00000155847843779752835780000004251858808514196115_);}
	.st12{fill:url(#SVGID_00000001624408969083444210000014480384035895252380_);}
	.st13{fill:url(#SVGID_00000152979914184760140100000010217414831082412423_);}
	.st14{fill:url(#SVGID_00000116237491511172777970000007752372177954635952_);}
	.st15{fill:url(#SVGID_00000141413542749088304640000009714038626159455900_);}
	.st16{fill:url(#SVGID_00000039124105045580760130000005114377119156509057_);}
	.st17{fill:url(#SVGID_00000177454852425978442590000001959107526397314185_);}
	.st18{fill:url(#SVGID_00000177468282488948926010000001194005178672986040_);}
	.st19{fill:url(#SVGID_00000059301663046877074290000014816417117837279624_);}
	.st20{fill:url(#SVGID_00000025429164067441378300000001174917673161301181_);}
	.st21{fill:url(#SVGID_00000080886439547761651290000012316955913441628565_);}
	.st22{fill:url(#SVGID_00000042727390529294307630000008042847503417815940_);}
	.st23{fill:url(#SVGID_00000183934838362599844380000016983129048212075649_);}
</style>
<pattern  x="-915.9" y="558.9" width="67" height="67" patternUnits="userSpaceOnUse" id="SVGID_0000001677817613079426186" viewBox="0 -67 67 67" style="overflow:visible;">
	<g>
		<rect y="-67" class="st0" width="67" height="67"/>
		<g>
			<rect y="-67" class="st0" width="67" height="67"/>
			<rect y="-67" class="st1" width="67" height="67"/>
		</g>
	</g>
</pattern>
<pattern  x="-915.9" y="558.9" width="67" height="67" patternUnits="userSpaceOnUse" id="SVGID_0000003479903144043162633" viewBox="0 -67 67 67" style="overflow:visible;">
	<g>
		<rect y="-67" class="st0" width="67" height="67"/>
		<g>
			<rect y="-67" class="st0" width="67" height="67"/>
			<rect y="-67" class="st1" width="67" height="67"/>
		</g>
	</g>
</pattern>
<pattern  x="-915.9" y="558.9" width="67" height="67" patternUnits="userSpaceOnUse" id="SVGID_0000003985026117750217799" viewBox="0 -67 67 67" style="overflow:visible;">
	<g>
		<rect y="-67" class="st0" width="67" height="67"/>
		<g>
			<rect y="-67" class="st0" width="67" height="67"/>
			<rect y="-67" class="st1" width="67" height="67"/>
		</g>
	</g>
</pattern>
<pattern  x="-915.9" y="558.9" width="67" height="67" patternUnits="userSpaceOnUse" id="SVGID_0000006146945302857123347" viewBox="0 -67 67 67" style="overflow:visible;">
	<g>
		<rect y="-67" class="st0" width="67" height="67"/>
		<g>
			<rect y="-67" class="st0" width="67" height="67"/>
			<rect y="-67" class="st1" width="67" height="67"/>
		</g>
	</g>
</pattern>
<pattern  x="-915.9" y="558.9" width="67" height="67" patternUnits="userSpaceOnUse" id="SVGID_0000006217911716326757389" viewBox="0 -67 67 67" style="overflow:visible;">
	<g>
		<rect y="-67" class="st0" width="67" height="67"/>
		<g>
			<rect y="-67" class="st0" width="67" height="67"/>
			<rect y="-67" class="st1" width="67" height="67"/>
		</g>
	</g>
</pattern>
<pattern  x="-915.9" y="558.9" width="67" height="67" patternUnits="userSpaceOnUse" id="SVGID_0000006792862959415959663" viewBox="0 -67 67 67" style="overflow:visible;">
	<g>
		<rect y="-67" class="st0" width="67" height="67"/>
		<g>
			<rect y="-67" class="st0" width="67" height="67"/>
			<rect y="-67" class="st1" width="67" height="67"/>
		</g>
	</g>
</pattern>
<pattern  x="-915.9" y="558.9" width="67" height="67" patternUnits="userSpaceOnUse" id="SVGID_0000007441831114467663287" viewBox="0 -67 67 67" style="overflow:visible;">
	<g>
		<rect y="-67" class="st0" width="67" height="67"/>
		<g>
			<rect y="-67" class="st0" width="67" height="67"/>
			<rect y="-67" class="st1" width="67" height="67"/>
		</g>
	</g>
</pattern>
<pattern  x="-915.9" y="558.9" width="67" height="67" patternUnits="userSpaceOnUse" id="SVGID_0000008449739977172900619" viewBox="0 -67 67 67" style="overflow:visible;">
	<g>
		<rect y="-67" class="st0" width="67" height="67"/>
		<g>
			<rect y="-67" class="st0" width="67" height="67"/>
			<rect y="-67" class="st1" width="67" height="67"/>
		</g>
	</g>
</pattern>
<pattern  x="-915.9" y="558.9" width="67" height="67" patternUnits="userSpaceOnUse" id="SVGID_0000008596595459262120800" viewBox="0 -67 67 67" style="overflow:visible;">
	<g>
		<rect y="-67" class="st0" width="67" height="67"/>
		<g>
			<rect y="-67" class="st0" width="67" height="67"/>
			<rect y="-67" class="st1" width="67" height="67"/>
		</g>
	</g>
</pattern>
<pattern  x="-915.9" y="558.9" width="67" height="67" patternUnits="userSpaceOnUse" id="SVGID_0000009388684520451144577" viewBox="0 -67 67 67" style="overflow:visible;">
	<g>
		<rect y="-67" class="st0" width="67" height="67"/>
		<g>
			<rect y="-67" class="st0" width="67" height="67"/>
			<rect y="-67" class="st1" width="67" height="67"/>
		</g>
	</g>
</pattern>
<pattern  x="-915.9" y="558.9" width="67" height="67" patternUnits="userSpaceOnUse" id="SVGID_0000010034180973044734255" viewBox="0 -67 67 67" style="overflow:visible;">
	<g>
		<rect y="-67" class="st0" width="67" height="67"/>
		<g>
			<rect y="-67" class="st0" width="67" height="67"/>
			<rect y="-67" class="st1" width="67" height="67"/>
		</g>
	</g>
</pattern>
<pattern  x="-915.9" y="558.9" width="67" height="67" patternUnits="userSpaceOnUse" id="SVGID_0000010542216795780443246" viewBox="0 -67 67 67" style="overflow:visible;">
	<g>
		<rect y="-67" class="st0" width="67" height="67"/>
		<g>
			<rect y="-67" class="st0" width="67" height="67"/>
			<rect y="-67" class="st1" width="67" height="67"/>
		</g>
	</g>
</pattern>
<pattern  x="-915.9" y="558.9" width="67" height="67" patternUnits="userSpaceOnUse" id="SVGID_0000011118060449196087870" viewBox="0 -67 67 67" style="overflow:visible;">
	<g>
		<rect y="-67" class="st0" width="67" height="67"/>
		<g>
			<rect y="-67" class="st0" width="67" height="67"/>
			<rect y="-67" class="st1" width="67" height="67"/>
		</g>
	</g>
</pattern>
<pattern  x="-915.9" y="558.9" width="67" height="67" patternUnits="userSpaceOnUse" id="SVGID_0000013928546300912713190" viewBox="0 -67 67 67" style="overflow:visible;">
	<g>
		<rect y="-67" class="st0" width="67" height="67"/>
		<g>
			<rect y="-67" class="st0" width="67" height="67"/>
			<rect y="-67" class="st1" width="67" height="67"/>
		</g>
	</g>
</pattern>
<pattern  x="-915.9" y="558.9" width="67" height="67" patternUnits="userSpaceOnUse" id="SVGID_0000014789852852749417670" viewBox="0 -67 67 67" style="overflow:visible;">
	<g>
		<rect y="-67" class="st0" width="67" height="67"/>
		<g>
			<rect y="-67" class="st0" width="67" height="67"/>
			<rect y="-67" class="st1" width="67" height="67"/>
		</g>
	</g>
</pattern>
<pattern  x="-915.9" y="558.9" width="67" height="67" patternUnits="userSpaceOnUse" id="SVGID_0000015224503008008738563" viewBox="0 -67 67 67" style="overflow:visible;">
	<g>
		<rect y="-67" class="st0" width="67" height="67"/>
		<g>
			<rect y="-67" class="st0" width="67" height="67"/>
			<rect y="-67" class="st1" width="67" height="67"/>
		</g>
	</g>
</pattern>
<pattern  x="-915.9" y="558.9" width="67" height="67" patternUnits="userSpaceOnUse" id="SVGID_0000015439036201022582802" viewBox="0 -67 67 67" style="overflow:visible;">
	<g>
		<rect y="-67" class="st0" width="67" height="67"/>
		<g>
			<rect y="-67" class="st0" width="67" height="67"/>
			<rect y="-67" class="st1" width="67" height="67"/>
		</g>
	</g>
</pattern>
<pattern  x="-915.9" y="558.9" width="67" height="67" patternUnits="userSpaceOnUse" id="SVGID_0000015439090735233983958" viewBox="0 -67 67 67" style="overflow:visible;">
	<g>
		<rect y="-67" class="st0" width="67" height="67"/>
		<g>
			<rect y="-67" class="st0" width="67" height="67"/>
			<rect y="-67" class="st1" width="67" height="67"/>
		</g>
	</g>
</pattern>
<pattern  x="-915.9" y="558.9" width="67" height="67" patternUnits="userSpaceOnUse" id="SVGID_0000017241466023416876727" viewBox="0 -67 67 67" style="overflow:visible;">
	<g>
		<rect y="-67" class="st0" width="67" height="67"/>
		<g>
			<rect y="-67" class="st0" width="67" height="67"/>
			<rect y="-67" class="st1" width="67" height="67"/>
		</g>
	</g>
</pattern>
<pattern  x="-915.9" y="558.9" width="67" height="67" patternUnits="userSpaceOnUse" id="SVGID_0000017529906144346531796" viewBox="0 -67 67 67" style="overflow:visible;">
	<g>
		<rect y="-67" class="st0" width="67" height="67"/>
		<g>
			<rect y="-67" class="st0" width="67" height="67"/>
			<rect y="-67" class="st1" width="67" height="67"/>
		</g>
	</g>
</pattern>
<pattern  x="-915.9" y="558.9" width="67" height="67" patternUnits="userSpaceOnUse" id="SVGID_0000017891119198557893726" viewBox="0 -67 67 67" style="overflow:visible;">
	<g>
		<rect y="-67" class="st0" width="67" height="67"/>
		<g>
			<rect y="-67" class="st0" width="67" height="67"/>
			<rect y="-67" class="st1" width="67" height="67"/>
		</g>
	</g>
</pattern>
<pattern  x="-915.9" y="558.9" width="67" height="67" patternUnits="userSpaceOnUse" id="SVGID_1_" viewBox="0 -67 67 67" style="overflow:visible;">
	<g>
		<rect y="-67" class="st0" width="67" height="67"/>
		<g>
			<rect y="-67" class="st0" width="67" height="67"/>
			<rect y="-67" class="st1" width="67" height="67"/>
		</g>
	</g>
</pattern>
<g>
	
		<pattern  id="SVGID_00000058586011598903892670000009428799046784419242_" xlink:href="#SVGID_1_" patternTransform="matrix(1 0 0 -1 -50 -17564.4004)">
	</pattern>
	<path style="fill:url(#SVGID_00000058586011598903892670000009428799046784419242_);" d="M22.6,29.1c-3.3,0-6.6,0-9.9,0
		c-0.5,2.5-1,4.9-1.5,7.4c3.8,0,7.6,0,11.4,0C22.6,34.1,22.6,31.6,22.6,29.1z"/>
	
		<pattern  id="SVGID_00000082355059378795059360000003694992987609875122_" xlink:href="#SVGID_0000003985026117750217799" patternTransform="matrix(1 0 0 -1 -50 -17564.4004)">
	</pattern>
	<path style="fill:url(#SVGID_00000082355059378795059360000003694992987609875122_);" d="M24.1,29.1c0,2.5,0,5,0,7.4
		c3.6,0,7.3,0,10.9,0c-0.5-2.5-1-5-1.5-7.4C30.3,29.1,27.2,29.1,24.1,29.1z"/>
	
		<pattern  id="SVGID_00000047766336529753424400000017559092635997433233_" xlink:href="#SVGID_0000006792862959415959663" patternTransform="matrix(1 0 0 -1 -50 -17564.4004)">
	</pattern>
	<path style="fill:url(#SVGID_00000047766336529753424400000017559092635997433233_);" d="M46.6,35.5c-0.4-1.4-0.8-2.8-1.2-4.2
		c-0.2-0.7-0.4-1.4-0.6-2.1c-3.3,0-6.5,0-9.8,0c0.5,2.5,1,4.9,1.5,7.4c0.2,0,0.3,0,0.4,0c3,0,6,0,9,0C46.5,36.6,46.8,36.2,46.6,35.5
		z"/>
	
		<pattern  id="SVGID_00000098933393146972002020000006432100548837112235_" xlink:href="#SVGID_0000006146945302857123347" patternTransform="matrix(1 0 0 -1 -50 -17564.4004)">
	</pattern>
	<path style="fill:url(#SVGID_00000098933393146972002020000006432100548837112235_);" d="M2.2,29.1c-0.2,0-0.3,0.1-0.3,0.3
		c-0.6,2-1.2,4.1-1.8,6.1c-0.2,0.6,0.1,1,0.8,1c1.5,0,3.1,0,4.6,0c1.4,0,2.8,0,4.3,0c0.5-2.5,1-4.9,1.5-7.5
		C11.1,29.1,5.1,29.1,2.2,29.1z"/>
	
		<pattern  id="SVGID_00000065048473434022027450000018342413504003186063_" xlink:href="#SVGID_0000017891119198557893726" patternTransform="matrix(1 0 0 -1 -50 -17564.4004)">
	</pattern>
	<path style="fill:url(#SVGID_00000065048473434022027450000018342413504003186063_);" d="M33.8,21.5c-0.1,0-0.2,0-0.3,0
		c0,0.1,0,0.1,0,0.1c0.4,1.9,0.8,3.8,1.1,5.7c0.1,0.3,0.2,0.4,0.5,0.4c3,0,5.9,0,8.9,0c0.1,0,0.2,0,0.4,0c0-0.1,0-0.2-0.1-0.3
		c-0.5-1.8-1.1-3.7-1.6-5.5c-0.1-0.3-0.2-0.4-0.5-0.4C39.4,21.5,36.6,21.5,33.8,21.5z"/>
	
		<pattern  id="SVGID_00000011710521293136770270000001823201654427081372_" xlink:href="#SVGID_0000014789852852749417670" patternTransform="matrix(1 0 0 -1 -50 -17564.4004)">
	</pattern>
	<path style="fill:url(#SVGID_00000011710521293136770270000001823201654427081372_);" d="M13,27.7c3.2,0,6.4,0,9.6,0
		c0-2.1,0-4.1,0-6.2c-2.8,0-5.6,0-8.4,0C13.8,23.6,13.4,25.6,13,27.7z"/>
	
		<pattern  id="SVGID_00000157993659901732054260000017564134187618673316_" xlink:href="#SVGID_0000015439090735233983958" patternTransform="matrix(1 0 0 -1 -50 -17564.4004)">
	</pattern>
	<path style="fill:url(#SVGID_00000157993659901732054260000017564134187618673316_);" d="M24.1,27.7c3.1,0,6.1,0,9.2,0
		c-0.4-2.1-0.8-4.1-1.2-6.1c-2.7,0-5.3,0-8,0C24.1,23.6,24.1,25.6,24.1,27.7z"/>
	
		<pattern  id="SVGID_00000180351028273428500140000011923254417981387448_" xlink:href="#SVGID_0000008449739977172900619" patternTransform="matrix(1 0 0 -1 -50 -17564.4004)">
	</pattern>
	<path style="fill:url(#SVGID_00000180351028273428500140000011923254417981387448_);" d="M32.1,14.3c0.4,1.9,0.8,3.8,1.1,5.7
		c3,0,6,0,9,0v-0.1c-0.5-1.7-1-3.4-1.5-5.1c-0.1-0.4-0.3-0.5-0.8-0.5c-1.9,0-3.7,0-5.6,0C33.6,14.3,32.8,14.3,32.1,14.3z"/>
	
		<pattern  id="SVGID_00000057114755810840777010000014777517020028327058_" xlink:href="#SVGID_0000009388684520451144577" patternTransform="matrix(1 0 0 -1 -50 -17564.4004)">
	</pattern>
	<path style="fill:url(#SVGID_00000057114755810840777010000014777517020028327058_);" d="M8.7,19.8"/>
	
		<pattern  id="SVGID_00000098205694061330551160000011432406228632196229_" xlink:href="#SVGID_0000010542216795780443246" patternTransform="matrix(1 0 0 -1 -50 -17564.4004)">
	</pattern>
	<path style="fill:url(#SVGID_00000098205694061330551160000011432406228632196229_);" d="M9.1,20.1c1.3,0,2.6,0,3.9,0
		c0.4-1.9,0.8-3.8,1.1-5.7c-0.2,0-0.3,0-0.4,0c-2.3,0-4.6,0-6.9,0c-0.5,0-0.7,0.1-0.9,0.7c-0.3,1-1,4.1-1.3,5.1"/>
	
		<pattern  id="SVGID_00000116939927528668245910000013443577992019627172_" xlink:href="#SVGID_0000010034180973044734255" patternTransform="matrix(1 0 0 -1 -50 -17564.4004)">
	</pattern>
	<path style="fill:url(#SVGID_00000116939927528668245910000013443577992019627172_);" d="M22.5,14.3c-2.2,0-4.5,0-6.7,0
		c-0.2,0-0.2,0.2-0.3,0.3c-0.2,1.2-0.5,2.5-0.7,3.8c-0.1,0.5-0.2,1.1-0.3,1.7c2.7,0,5.4,0,8.1,0C22.6,18.1,22.6,16.2,22.5,14.3
		L22.5,14.3z"/>
	
		<pattern  id="SVGID_00000098901257261693211610000007756153522589188744_" xlink:href="#SVGID_0000011118060449196087870" patternTransform="matrix(1 0 0 -1 -50 -17564.4004)">
	</pattern>
	<path style="fill:url(#SVGID_00000098901257261693211610000007756153522589188744_);" d="M24.1,14.3c0,1.9,0,3.8,0,5.7
		c2.5,0,5.1,0,7.7,0c-0.4-1.9-0.8-3.8-1.1-5.7C28.4,14.3,26.2,14.3,24.1,14.3z"/>
	
		<pattern  id="SVGID_00000034779366370228110450000005382033532814930319_" xlink:href="#SVGID_0000003479903144043162633" patternTransform="matrix(1 0 0 -1 -50 -17564.4004)">
	</pattern>
	<path style="fill:url(#SVGID_00000034779366370228110450000005382033532814930319_);" d="M23,3.6c1,0.2,0.8-0.8,0.8-1.8
		c0-0.9,0.1-1.9-0.8-1.8c-0.8,0.1-0.6,0.8-0.6,1.7C22.4,2.8,22.2,3.5,23,3.6z"/>
	
		<pattern  id="SVGID_00000031890625097051845260000013953143378308366488_" xlink:href="#SVGID_0000015224503008008738563" patternTransform="matrix(1 0 0 -1 -50 -17564.4004)">
	</pattern>
	<path style="fill:url(#SVGID_00000031890625097051845260000013953143378308366488_);" d="M16.5,4.8c0.3,0.3,0.7,0.9,1.2,1
		s0.9-0.3,0.8-0.8c-0.1-0.3-0.6-0.8-0.9-1.1c-0.4-0.4-0.8-1-1.4-1c-0.3,0.1-0.7,0.3-0.6,0.7C15.6,4.1,16.3,4.6,16.5,4.8z"/>
	
		<pattern  id="SVGID_00000121979369324247242530000003840065828457151105_" xlink:href="#SVGID_0000017241466023416876727" patternTransform="matrix(1 0 0 -1 -50 -17564.4004)">
	</pattern>
	<path style="fill:url(#SVGID_00000121979369324247242530000003840065828457151105_);" d="M28.5,5.8c0.4-0.1,0.8-0.6,1.1-1
		c0.4-0.4,0.9-0.7,0.9-1.2c0-0.6-0.5-0.8-0.8-0.7c-0.5,0.1-0.9,0.7-1.2,1S27.6,4.6,27.6,5C27.6,5.5,28,5.9,28.5,5.8z"/>
	
		<pattern  id="SVGID_00000142881845474794522950000012309381382016506027_" xlink:href="#SVGID_0000008596595459262120800" patternTransform="matrix(1 0 0 -1 -50 -17564.4004)">
	</pattern>
	<path style="fill:url(#SVGID_00000142881845474794522950000012309381382016506027_);" d="M17.5,12.3h1.4c-0.3-0.6-0.4-1.2-0.4-1.9
		c0-1.7,0.9-3,1.9-3.7C21,6.3,21.8,6,22.8,5.9c2.2-0.2,3.8,1.2,4.4,2.6c0.6,1.4,0.5,2.8,0,3.9h1.5c0.2-0.6,0.3-1.2,0.3-2
		c0-1.8-0.8-3.4-1.8-4.2c-1-0.9-2.5-1.8-4.4-1.7c-0.7,0-1.3,0.2-1.9,0.4c-1.6,0.6-2.7,1.8-3.3,3.2C17,9.5,17.1,11,17.5,12.3z"/>
	
		<pattern  id="SVGID_00000139982575421091294670000016528300999752893843_" xlink:href="#SVGID_0000013928546300912713190" patternTransform="matrix(1 0 0 -1 -50 -17564.4004)">
	</pattern>
	<path style="fill:url(#SVGID_00000139982575421091294670000016528300999752893843_);" d="M14.6,11.1c0.5,0,1,0.1,1.4,0
		c0.4-0.2,0.8-1.1,0-1.4c-0.4-0.1-0.9,0-1.2,0c-0.4,0-1-0.1-1.3,0s-0.6,0.2-0.5,0.7C12.8,11.2,13.7,11.1,14.6,11.1z"/>
	
		<pattern  id="SVGID_00000153682644472467111610000005222291752215241348_" xlink:href="#SVGID_0000006217911716326757389" patternTransform="matrix(1 0 0 -1 -50 -17564.4004)">
	</pattern>
	<path style="fill:url(#SVGID_00000153682644472467111610000005222291752215241348_);" d="M29.8,10.3c-0.1,1,0.9,0.8,1.8,0.8
		c1,0,1.8,0.1,1.8-0.7s-0.8-0.7-1.7-0.7c-0.5,0-1.1,0-1.3,0C30.1,9.8,29.8,10,29.8,10.3z"/>
	
		<pattern  id="SVGID_00000175305376426451278000000009045818693560684452_" xlink:href="#SVGID_0000001677817613079426186" patternTransform="matrix(1 0 0 -1 -50 -17564.4004)">
	</pattern>
	<path style="fill:url(#SVGID_00000175305376426451278000000009045818693560684452_);" d="M4,21.5c-0.3,0-0.4,0.1-0.5,0.4
		c-0.5,1.8-1.1,3.7-1.6,5.5c0,0.1,0,0.2-0.1,0.3c0.2,0,0.3,0,0.4,0c3,0,5.9,0,8.9,0c0.3,0,0.4-0.1,0.5-0.4c0.4-1.9,0.7-3.8,1.1-5.7
		v-0.1c-0.1,0-0.2,0-0.3,0C9.6,21.5,6.8,21.5,4,21.5z"/>
</g>
<g>
	
		<pattern  id="SVGID_00000052790748395498688100000006233484608147153047_" xlink:href="#SVGID_0000007441831114467663287" patternTransform="matrix(1 0 0 -1 -50 -17564.4004)">
	</pattern>
	<path style="fill:url(#SVGID_00000052790748395498688100000006233484608147153047_);" d="M70.3,38.2c-10,0-18.2-8.1-18.2-18.2
		c0-10,8.1-18.2,18.2-18.2c10,0,18.2,8.1,18.2,18.2S80.3,38.2,70.3,38.2z M70.3,4.2c-8.8,0-15.9,7.1-15.9,15.9
		c0,8.8,7.1,15.9,15.9,15.9c8.8,0,15.9-7.1,15.9-15.9C86.2,11.3,79.1,4.2,70.3,4.2z"/>
	
		<pattern  id="SVGID_00000123410318618112386590000008293305214953596338_" xlink:href="#SVGID_0000015439036201022582802" patternTransform="matrix(1 0 0 -1 -50 -17564.4004)">
	</pattern>
	<polygon style="fill:url(#SVGID_00000123410318618112386590000008293305214953596338_);" points="65,23.5 62.9,25.6 65,27.6 
		77.8,14.8 75.7,12.7 	"/>
	
		<pattern  id="SVGID_00000088838855372684996260000013050933925960213642_" xlink:href="#SVGID_0000017529906144346531796" patternTransform="matrix(1 0 0 -1 -50 -17564.4004)">
	</pattern>
	<polygon style="fill:url(#SVGID_00000088838855372684996260000013050933925960213642_);" points="73.7,25.5 75.8,27.6 77.8,25.6 
		65,12.8 62.9,14.8 	"/>
</g>
</svg>
