<?xml version="1.0" encoding="utf-8"?>
<!-- Generator: Adobe Illustrator 28.0.0, SVG Export Plug-In . SVG Version: 6.00 Build 0)  -->
<svg version="1.1" id="Layer_1" xmlns="http://www.w3.org/2000/svg" xmlns:xlink="http://www.w3.org/1999/xlink" x="0px" y="0px"
	 viewBox="0 0 90.1 90.2" style="enable-background:new 0 0 90.1 90.2;" xml:space="preserve">
<style type="text/css">
	.st0{fill:none;}
	.st1{fill:#838083;}
	.st2{fill:url(#SVGID_00000118372317453231800200000009634899448484553144_);}
	.st3{fill:url(#SVGID_00000013185280532390401640000006702624760488020645_);}
</style>
<pattern  x="-915" y="584.9" width="67" height="67" patternUnits="userSpaceOnUse" id="SVGID_0000015873529832620196258" viewBox="0 -67 67 67" style="overflow:visible;">
	<g>
		<rect y="-67" class="st0" width="67" height="67"/>
		<g>
			<rect y="-67" class="st0" width="67" height="67"/>
			<rect y="-67" class="st1" width="67" height="67"/>
		</g>
	</g>
</pattern>
<pattern  x="-915" y="584.9" width="67" height="67" patternUnits="userSpaceOnUse" id="SVGID_1_" viewBox="0 -67 67 67" style="overflow:visible;">
	<g>
		<rect y="-67" class="st0" width="67" height="67"/>
		<g>
			<rect y="-67" class="st0" width="67" height="67"/>
			<rect y="-67" class="st1" width="67" height="67"/>
		</g>
	</g>
</pattern>
<g>
	
		<pattern  id="SVGID_00000078751036537750908490000009472551958160817841_" xlink:href="#SVGID_1_" patternTransform="matrix(1 0 0 -1 -50 -17512.4004)">
	</pattern>
	<path style="fill:url(#SVGID_00000078751036537750908490000009472551958160817841_);" d="M45.1,90.2C20.2,90.2,0,70,0,45.1
		C0,20.3,20.2,0,45.1,0c24.8,0,45,20.2,45,45.1C90.1,70,69.9,90.2,45.1,90.2z M45.1,5.6C23.3,5.6,5.6,23.3,5.6,45.1
		s17.7,39.5,39.5,39.5s39.5-17.7,39.5-39.5S66.9,5.6,45.1,5.6z"/>
</g>
<pattern  id="SVGID_00000148633224630756698440000009243401787480859015_" xlink:href="#SVGID_0000015873529832620196258" patternTransform="matrix(1 0 0 -1 -50 -17512.4004)">
</pattern>
<path style="fill:url(#SVGID_00000148633224630756698440000009243401787480859015_);" d="M48.5,51.1c0-0.7,0.4-1.4,1.2-2.1
	c0.8-0.7,1.7-1.3,2.8-2c1.1-0.6,2.2-1.4,3.3-2.2c1.1-0.9,2-2.1,2.8-3.6c0.8-1.6,1.2-3.4,1.2-5.4c0-4.1-1.5-7.4-4.4-10
	s-6.6-3.9-10.9-3.9c-2.5,0-4.9,0.6-7.2,1.7c-2.3,1.2-4,2.3-5.1,3.5l-1.6,1.7l5.6,5.6c0.3-0.3,0.7-0.7,1.3-1.2c0.5-0.5,1.6-1.1,3-1.9
	c1.5-0.8,2.8-1.2,4.1-1.2c2,0,3.7,0.6,5,1.7c1.3,1.1,2,2.4,2,3.9c0,1.2-0.6,2.4-1.7,3.4c-1.2,1-2.4,1.9-3.8,2.6
	c-1.4,0.7-2.7,1.7-3.8,3.1c-1.2,1.4-1.7,3-1.7,4.9v2.8H49v-1.4H48.5z M40.4,69c1.1,1.1,2.4,1.6,4,1.6s2.9-0.5,4-1.6s1.6-2.4,1.6-4
	s-0.5-2.9-1.6-4s-2.4-1.6-4-1.6s-2.9,0.5-4,1.6s-1.6,2.4-1.6,4S39.3,67.9,40.4,69z"/>
</svg>
