<?xml version="1.0" encoding="utf-8"?>
<!-- Generator: Adobe Illustrator 28.0.0, SVG Export Plug-In . SVG Version: 6.00 Build 0)  -->
<svg version="1.1" id="Layer_1" xmlns="http://www.w3.org/2000/svg" xmlns:xlink="http://www.w3.org/1999/xlink" x="0px" y="0px"
	 viewBox="0 0 14.8 14.9" style="enable-background:new 0 0 14.8 14.9;" xml:space="preserve">
<style type="text/css">
	.st0{fill:none;}
	.st1{fill:#3B3E45;}
	.st2{fill:url(#SVGID_1_);}
	.st3{fill:url(#SVGID_00000021805349529100620160000009881924564562444165_);}
	.st4{fill:url(#SVGID_00000134964251875286122000000001328075998110374064_);}
</style>
<pattern  x="-963.3" y="-528.4" width="67" height="67" patternUnits="userSpaceOnUse" id="New_Pattern_Swatch_6" viewBox="0 -67 67 67" style="overflow:visible;">
	<g>
		<rect y="-67" class="st0" width="67" height="67"/>
		<rect y="-67" class="st1" width="67" height="67"/>
	</g>
</pattern>
<g>
	<pattern  id="SVGID_1_" xlink:href="#New_Pattern_Swatch_6" patternTransform="matrix(1 0 0 1 -50 -62)">
	</pattern>
	<path class="st2" d="M0,8.6c0-0.3,0-0.6,0-1c0.3,0,0.6,0,0.9,0.1c0.4,0.1,0.7,0.3,1,0.5c0.2,0.2,0.4,0.3,0.7,0.5
		C2.9,9,3.3,9.1,3.7,9.1c0-1.5,0-3,0-4.6c0-1.5,0-3,0-4.5c0.3,0,0.6,0,1,0c0,0.5,0,0.9,0,1.4c1.8,0,3.6,0,5.4,0c0-0.5,0-0.9,0-1.4
		c0.3,0,0.7,0,1,0c0,3,0,6.1,0,9.1c0.2,0,0.4,0,0.6-0.1C12,9,12.3,8.8,12.5,8.6c0.2-0.2,0.4-0.3,0.7-0.5c0.5-0.3,1-0.5,1.6-0.5
		c0,0.3,0,0.6,0,1c-0.1,0-0.2,0-0.3,0c-0.3,0-0.6,0.2-0.9,0.4c-0.2,0.2-0.4,0.3-0.7,0.5c-1,0.7-2.5,0.7-3.5,0
		C9.1,9.4,8.9,9.2,8.7,9.1c-0.8-0.6-1.8-0.6-2.7,0C5.8,9.2,5.6,9.4,5.4,9.6c-1,0.7-2.4,0.7-3.4,0C1.8,9.4,1.6,9.3,1.4,9.1
		C1,8.8,0.6,8.6,0,8.6C0.1,8.6,0,8.6,0,8.6z M4.7,3.6c1.8,0,3.6,0,5.4,0c0-0.4,0-0.8,0-1.2c-1.8,0-3.6,0-5.4,0
		C4.7,2.8,4.7,3.2,4.7,3.6z M10.1,4.6c-1.8,0-3.6,0-5.4,0c0,0.4,0,0.8,0,1.2c1.8,0,3.6,0,5.4,0C10.1,5.4,10.1,5,10.1,4.6z M4.7,6.9
		c0,0.7,0,1.3,0,2c0.1-0.1,0.2-0.1,0.2-0.2c0.2-0.1,0.4-0.3,0.5-0.4c1.1-0.9,2.7-0.9,3.8,0c0.2,0.2,0.4,0.3,0.6,0.5
		c0,0,0.1,0.1,0.2,0.1c0-0.7,0-1.3,0-2C8.3,6.9,6.5,6.9,4.7,6.9z"/>
	
		<pattern  id="SVGID_00000163045688921312616900000009087907554409965704_" xlink:href="#New_Pattern_Swatch_6" patternTransform="matrix(1 0 0 1 -50 -62)">
	</pattern>
	<path style="fill:url(#SVGID_00000163045688921312616900000009087907554409965704_);" d="M14.8,10.1c0,0.3,0,0.6,0,1
		c0,0-0.1,0-0.1,0c-0.4,0-0.8,0.2-1.2,0.4c-0.2,0.2-0.5,0.4-0.7,0.5c-1,0.7-2.4,0.7-3.4,0c-0.2-0.2-0.5-0.3-0.7-0.5
		c-0.8-0.6-1.8-0.6-2.6,0c-0.2,0.2-0.5,0.4-0.7,0.6c-1.1,0.7-2.2,0.7-3.4,0c-0.2-0.1-0.4-0.3-0.6-0.4c-0.4-0.3-0.8-0.5-1.3-0.5
		c0,0,0,0-0.1,0c0-0.3,0-0.6,0-1c0.6,0,1.1,0.1,1.5,0.4c0.3,0.2,0.5,0.4,0.8,0.6c0.3,0.2,0.6,0.4,1,0.5c0.6,0.1,1.2,0,1.7-0.4
		c0.2-0.2,0.4-0.3,0.7-0.5c1.1-0.8,2.5-0.8,3.6,0c0.2,0.2,0.4,0.3,0.6,0.5c0.8,0.6,1.8,0.6,2.6,0c0.2-0.2,0.4-0.3,0.7-0.5
		c0.5-0.3,1-0.5,1.6-0.5C14.7,10.1,14.7,10.1,14.8,10.1z"/>
	
		<pattern  id="SVGID_00000089565363490476305920000015007846214580274846_" xlink:href="#New_Pattern_Swatch_6" patternTransform="matrix(1 0 0 1 -50 -62)">
	</pattern>
	<path style="fill:url(#SVGID_00000089565363490476305920000015007846214580274846_);" d="M14.8,12.5c0,0.3,0,0.6,0,1
		c0,0-0.1,0-0.1,0c-0.4,0-0.8,0.2-1.2,0.4c-0.2,0.2-0.5,0.4-0.7,0.5c-1,0.7-2.4,0.7-3.4,0c-0.2-0.2-0.5-0.3-0.7-0.5
		c-0.8-0.6-1.8-0.6-2.6,0c-0.2,0.2-0.5,0.4-0.7,0.6c-1.1,0.7-2.2,0.7-3.4,0c-0.2-0.1-0.4-0.3-0.6-0.4c-0.4-0.3-0.8-0.5-1.3-0.5
		c0,0,0,0-0.1,0c0-0.3,0-0.6,0-1c0.6,0,1.1,0.1,1.5,0.4C1.8,13,2,13.2,2.3,13.4c0.3,0.2,0.6,0.4,1,0.5c0.6,0.1,1.2,0,1.7-0.4
		c0.2-0.2,0.4-0.3,0.7-0.5c1.1-0.8,2.5-0.8,3.6,0c0.2,0.2,0.4,0.3,0.6,0.5c0.8,0.6,1.8,0.6,2.6,0c0.2-0.2,0.4-0.3,0.7-0.5
		c0.5-0.3,1-0.5,1.6-0.5C14.7,12.5,14.7,12.5,14.8,12.5z"/>
</g>
</svg>
