<?xml version="1.0" encoding="utf-8"?>
<!-- Generator: Adobe Illustrator 28.0.0, SVG Export Plug-In . SVG Version: 6.00 Build 0)  -->
<svg version="1.1" id="Layer_1" xmlns="http://www.w3.org/2000/svg" xmlns:xlink="http://www.w3.org/1999/xlink" x="0px" y="0px"
	 viewBox="0 0 37.4 37.5" style="enable-background:new 0 0 37.4 37.5;" xml:space="preserve">
<style type="text/css">
	.st0{fill:none;}
	.st1{fill:#838083;}
	.st2{fill:url(#SVGID_00000094586512006349389040000009668363415069305276_);}
</style>
<pattern  x="-941.4" y="558.5" width="67" height="67" patternUnits="userSpaceOnUse" id="SVGID_1_" viewBox="0 -67 67 67" style="overflow:visible;">
	<g>
		<rect y="-67" class="st0" width="67" height="67"/>
		<g>
			<rect y="-67" class="st0" width="67" height="67"/>
			<rect y="-67" class="st1" width="67" height="67"/>
		</g>
	</g>
</pattern>
<pattern  id="SVGID_00000054981161496661755850000003729223946911113364_" xlink:href="#SVGID_1_" patternTransform="matrix(1 0 0 -1 -50 -17565)">
</pattern>
<path style="fill:url(#SVGID_00000054981161496661755850000003729223946911113364_);" d="M37.3,19.1c-0.1,0.3-0.4,0.5-0.7,0.5h-3.9
	v17.1c0,0.2-0.1,0.4-0.2,0.6c-0.1,0.1-0.3,0.2-0.6,0.2h-7.8c-0.2,0-0.4-0.1-0.6-0.2c-0.1-0.1-0.2-0.3-0.2-0.6V23.5H14v13.2
	c0,0.2-0.1,0.4-0.2,0.6c-0.1,0.1-0.3,0.2-0.6,0.2H5.4c-0.2,0-0.4-0.1-0.6-0.2c-0.1-0.1-0.2-0.3-0.2-0.6V19.6H0.7
	c-0.3,0-0.6-0.2-0.7-0.5c-0.1-0.3,0-0.6,0.2-0.9L18.1,0.3c0.4-0.4,0.7-0.4,1.1,0l17.9,17.9C37.3,18.5,37.4,18.8,37.3,19.1z"/>
</svg>
