<?xml version="1.0" encoding="utf-8"?>
<!-- Generator: Adobe Illustrator 28.0.0, SVG Export Plug-In . SVG Version: 6.00 Build 0)  -->
<svg version="1.1" id="Layer_1" xmlns="http://www.w3.org/2000/svg" xmlns:xlink="http://www.w3.org/1999/xlink" x="0px" y="0px"
	 viewBox="0 0 15.5 15.5" style="enable-background:new 0 0 15.5 15.5;" xml:space="preserve">
<style type="text/css">
	.st0{fill:none;}
	.st1{fill:#3B3E45;}
	.st2{fill:url(#SVGID_1_);}
	.st3{fill:url(#SVGID_00000079444044588692795560000011057345309541413054_);}
	.st4{fill:url(#SVGID_00000069381830665595831280000007048782524159149988_);}
	.st5{fill:url(#SVGID_00000093166527010655982240000006282050679785218179_);}
	.st6{fill:url(#SVGID_00000072997866252667786900000008556412157805865124_);}
	.st7{fill:url(#SVGID_00000053514382439459642150000010564769282530853521_);}
	.st8{fill:url(#SVGID_00000091729946207063868030000015278449716388456879_);}
	.st9{fill:url(#SVGID_00000023985166997175632310000010194735122206612884_);}
	.st10{fill:url(#SVGID_00000007408516908320043130000003320600288881527695_);}
</style>
<pattern  x="-952.3" y="-532.4" width="67" height="67" patternUnits="userSpaceOnUse" id="New_Pattern_Swatch_6" viewBox="0 -67 67 67" style="overflow:visible;">
	<g>
		<rect y="-67" class="st0" width="67" height="67"/>
		<rect y="-67" class="st1" width="67" height="67"/>
	</g>
</pattern>
<g>
	<pattern  id="SVGID_1_" xlink:href="#New_Pattern_Swatch_6" patternTransform="matrix(1 0 0 1 -50 -62)">
	</pattern>
	<path class="st2" d="M7.7,0c0.7-0.1,0.6,0.6,0.6,1.3s0.1,1.4-0.6,1.3C7.1,2.6,7.2,2,7.2,1.3C7.2,0.6,7.1,0.1,7.7,0z"/>
	
		<pattern  id="SVGID_00000112619291530896998700000001003618436117988766_" xlink:href="#New_Pattern_Swatch_6" patternTransform="matrix(1 0 0 1 -50 -62)">
	</pattern>
	<path style="fill:url(#SVGID_00000112619291530896998700000001003618436117988766_);" d="M2.6,2.1c0.4,0,0.8,0.5,1.1,0.7
		c0.2,0.2,0.6,0.6,0.7,0.8c0.1,0.4-0.3,0.7-0.6,0.6C3.4,4.3,3,3.8,2.8,3.6C2.6,3.4,2.1,3,2.1,2.6C2.1,2.3,2.3,2.2,2.6,2.1z"/>
	
		<pattern  id="SVGID_00000139977842180453457060000015132729126849276056_" xlink:href="#New_Pattern_Swatch_6" patternTransform="matrix(1 0 0 1 -50 -62)">
	</pattern>
	<path style="fill:url(#SVGID_00000139977842180453457060000015132729126849276056_);" d="M12.8,2.1c0.2,0,0.6,0.1,0.6,0.5
		c0,0.4-0.4,0.6-0.7,0.9c-0.3,0.3-0.5,0.7-0.9,0.8c-0.4,0.1-0.7-0.2-0.6-0.6c0-0.3,0.5-0.7,0.7-0.9C12.1,2.7,12.4,2.2,12.8,2.1z"/>
	
		<pattern  id="SVGID_00000062157404800347231160000002349917128044097686_" xlink:href="#New_Pattern_Swatch_6" patternTransform="matrix(1 0 0 1 -50 -62)">
	</pattern>
	<path style="fill:url(#SVGID_00000062157404800347231160000002349917128044097686_);" d="M7.6,3.3c1.4-0.1,2.6,0.6,3.3,1.2
		c0.7,0.6,1.3,1.8,1.3,3.2c0,2.1-1.3,3.4-2.6,4.1C7.8,12.7,5.8,12,4.7,11c-1.1-1-1.8-3-1-4.9c0.5-1.1,1.3-2,2.5-2.4
		C6.6,3.4,7.1,3.3,7.6,3.3z M5.7,4.9C5,5.5,4.3,6.4,4.3,7.8c0,1.6,1,2.7,2.1,3.2c2.9,1.3,5.9-1.7,4.5-4.7c-0.5-1.1-1.7-2.1-3.3-1.9
		C6.8,4.4,6.2,4.6,5.7,4.9z"/>
	
		<pattern  id="SVGID_00000023260406684491336400000013272648033360630933_" xlink:href="#New_Pattern_Swatch_6" patternTransform="matrix(1 0 0 1 -50 -62)">
	</pattern>
	<path style="fill:url(#SVGID_00000023260406684491336400000013272648033360630933_);" d="M0.4,7.2c0.3-0.1,0.7,0,1,0
		c0.3,0,0.6-0.1,0.9,0c0.6,0.2,0.3,0.9,0,1c-0.3,0.1-0.7,0-1,0C0.7,8.3,0,8.4,0,7.8C0,7.4,0.2,7.3,0.4,7.2z"/>
	
		<pattern  id="SVGID_00000147915581627985542660000000552260305216601249_" xlink:href="#New_Pattern_Swatch_6" patternTransform="matrix(1 0 0 1 -50 -62)">
	</pattern>
	<path style="fill:url(#SVGID_00000147915581627985542660000000552260305216601249_);" d="M13.2,7.2c0.2,0,0.6,0,1,0
		c0.7,0,1.3-0.1,1.3,0.5c0,0.6-0.6,0.5-1.4,0.5c-0.7,0-1.4,0.1-1.3-0.6C12.8,7.5,13,7.3,13.2,7.2z"/>
	
		<pattern  id="SVGID_00000144309946661468748380000002069358043776015033_" xlink:href="#New_Pattern_Swatch_6" patternTransform="matrix(1 0 0 1 -50 -62)">
	</pattern>
	<path style="fill:url(#SVGID_00000144309946661468748380000002069358043776015033_);" d="M3.6,11.2c0.2,0,0.7,0.1,0.7,0.6
		c0,0.3-0.5,0.6-0.7,0.9C3.3,13,3,13.4,2.7,13.4c-0.3,0-0.6-0.2-0.6-0.6c0-0.3,0.5-0.7,0.7-0.9C3,11.7,3.3,11.3,3.6,11.2z"/>
	
		<pattern  id="SVGID_00000100346198601544683550000005380284762834236554_" xlink:href="#New_Pattern_Swatch_6" patternTransform="matrix(1 0 0 1 -50 -62)">
	</pattern>
	<path style="fill:url(#SVGID_00000100346198601544683550000005380284762834236554_);" d="M11.6,11.2c0.5-0.1,0.8,0.4,1.1,0.7
		c0.3,0.3,0.7,0.6,0.7,0.9c0,0.3-0.2,0.6-0.6,0.6c-0.4,0-1-0.8-1.3-1.1c-0.1-0.1-0.3-0.3-0.3-0.5C11.1,11.4,11.3,11.2,11.6,11.2z"/>
	
		<pattern  id="SVGID_00000075885365384589484760000004409917206544290231_" xlink:href="#New_Pattern_Swatch_6" patternTransform="matrix(1 0 0 1 -50 -62)">
	</pattern>
	<path style="fill:url(#SVGID_00000075885365384589484760000004409917206544290231_);" d="M7.6,12.9c0.2,0,0.6,0,0.6,0.3
		c0.1,0.2,0,0.6,0,1c0,0.4,0,0.8,0,1c-0.2,0.5-0.9,0.4-1,0c-0.1-0.2,0-0.7,0-1C7.2,13.5,7.1,13,7.6,12.9z"/>
</g>
</svg>
