<?xml version="1.0" encoding="utf-8"?>
<!-- Generator: Adobe Illustrator 28.0.0, SVG Export Plug-In . SVG Version: 6.00 Build 0)  -->
<svg version="1.1" id="Layer_1" xmlns="http://www.w3.org/2000/svg" xmlns:xlink="http://www.w3.org/1999/xlink" x="0px" y="0px"
	 viewBox="0 0 9145.8 2470.7" style="enable-background:new 0 0 9145.8 2470.7;" xml:space="preserve">
<style type="text/css">
	.st0{fill:#28A8E0;}
	.st1{fill:#0380AD;}
	.st2{fill:#073F57;}
</style>
<g>
	<path class="st0" d="M382.1,392.3L608.7,0l188.2,496.4L529.3,959.9L0,1054.2l225.6-390.8c34.8-60.3,224.8-52,224.8-52
		S346.3,454.4,382.1,392.3z"/>
	<path class="st1" d="M944,1064l-226.5,392.3L529.3,959.9l267.6-463.5l529.3-94.3l-225.6,390.8c-34.8,60.3-224.8,52-224.8,52
		S979.9,1002,944,1064z"/>
	<path class="st2" d="M1701,1475.2c-58.7,0-115.5-9.1-170.2-27.4c-54-19-96.4-44.4-127.4-76.2c-10.3-8.7-15.5-20.2-15.5-34.5
		c0-8.7,2.4-16.3,7.1-22.6c5.6-6.3,11.5-9.5,17.9-9.5c7.9,0,17.1,4,27.4,11.9c74.6,61.9,161.5,92.9,260.7,92.9
		c72.2,0,127.8-14.3,166.7-42.9c39.7-29.4,59.5-70.6,59.5-123.8c0-31-9.5-56-28.6-75c-19-19-43.3-33.7-72.6-44
		c-29.4-11.1-68.6-22.2-117.9-33.3c-65.1-14.3-117.9-29-158.3-44c-39.7-15.1-73.4-37.7-101.2-67.9c-27.8-31-41.7-72.2-41.7-123.8
		c0-46.8,12.3-88.1,36.9-123.8c25.4-36.5,60.7-64.7,106-84.5c45.2-19.8,97.2-29.8,155.9-29.8c54.8,0,106.3,9.1,154.8,27.4
		c48.4,17.5,88.5,42.9,120.2,76.2c10.3,10.3,15.5,21.8,15.5,34.5c0,8.7-2.8,16.3-8.3,22.6c-4.8,6.3-10.3,9.5-16.7,9.5
		c-7.9,0-17.1-4-27.4-11.9c-42.9-34.9-81.8-59.1-116.7-72.6c-34.1-13.5-74.6-20.2-121.4-20.2c-70.6,0-125.8,15.1-165.5,45.2
		c-39.7,30.2-59.5,72.2-59.5,126.2c0,32.5,8.7,59.1,26.2,79.8c17.5,19.8,40.1,35.7,67.9,47.6c28.6,11.9,65.1,23.4,109.5,34.5l31,7.1
		c64.3,15.9,115.1,30.6,152.4,44c37.3,13.5,68.7,34.5,94,63.1c26.2,27.8,39.3,65.5,39.3,113.1c0,45.2-12.7,85.7-38.1,121.4
		c-24.6,34.9-59.9,62.3-106,82.1C1811.7,1465.7,1759.7,1475.2,1701,1475.2z"/>
	<path class="st2" d="M2184.7,1471.6c-11.1,0-20.2-3.2-27.4-9.5c-6.4-7.1-9.5-16.7-9.5-28.6V663.3c0-10.3,3.6-19,10.7-26.2
		c7.9-7.1,17.5-10.7,28.6-10.7h278.6c87.3,0,154.8,21,202.4,63.1c48.4,42.1,72.6,101.6,72.6,178.6c0,77.8-24.2,138.1-72.6,180.9
		c-48.4,42.1-115.9,63.1-202.4,63.1h-244v321.4c0,11.9-3.6,21.4-10.7,28.6C2204.6,1468.4,2195.8,1471.6,2184.7,1471.6z M2460.9,1049
		c137.3,0,206-60.3,206-180.9c0-119-68.7-178.6-206-178.6h-239.3V1049H2460.9z"/>
	<path class="st2" d="M2928.4,1465.7c-11.1,0-20.6-3.6-28.6-10.7c-7.1-7.1-10.7-15.9-10.7-26.2V663.3c0-10.3,3.6-19,10.7-26.2
		c7.9-7.1,17.5-10.7,28.6-10.7h452.4c10.3,0,18.3,2.8,23.8,8.3c6.4,5.6,9.5,13.5,9.5,23.8c0,9.5-3.2,17.1-9.5,22.6
		c-5.5,5.6-13.5,8.3-23.8,8.3h-419v317.9h395.2c10.3,0,18.3,2.8,23.8,8.3c6.4,5.6,9.5,13.5,9.5,23.8c0,10.3-3.2,18.3-9.5,23.8
		c-5.5,5.6-13.5,8.3-23.8,8.3h-395.2v330.9h419c10.3,0,18.3,2.8,23.8,8.3c6.4,4.8,9.5,12.3,9.5,22.6c0,10.3-3.2,18.3-9.5,23.8
		c-5.5,5.6-13.5,8.3-23.8,8.3H2928.4z"/>
	<path class="st2" d="M4184.4,620.4c11.1,0,19.4,3.6,25,10.7c6.4,6.3,9.5,15.5,9.5,27.4v775c0,11.1-3.2,20.2-9.5,27.4
		c-6.3,7.1-15.1,10.7-26.2,10.7c-11.9,0-22.6-6-32.1-17.9l-521.4-703.6v683.3c0,11.1-3.2,20.2-9.5,27.4c-6.4,7.1-14.7,10.7-25,10.7
		c-11.9,0-20.6-3.2-26.2-9.5c-5.5-7.1-8.3-16.7-8.3-28.6v-775c0-11.1,3.2-20.2,9.5-27.4c7.1-7.1,16.7-10.7,28.6-10.7
		c12.7,0,23,6,31,17.9l520.2,702.4V658.5c0-11.1,3.2-20.2,9.5-27.4C4165.7,624,4174,620.4,4184.4,620.4z"/>
	<path class="st2" d="M4457.4,1465.7c-11.1,0-20.6-3.6-28.6-10.7c-7.1-7.1-10.7-15.9-10.7-26.2V663.3c0-10.3,3.6-19,10.7-26.2
		c7.9-7.1,17.5-10.7,28.6-10.7h230.9c132.5,0,234.9,36.1,307.1,108.3c73,72.2,109.5,175.8,109.5,310.7
		c0,134.9-36.5,238.9-109.5,311.9c-72.2,72.2-174.6,108.3-307.1,108.3H4457.4z M4684.7,1401.4c228.6,0,342.9-118.6,342.9-355.9
		c0-236.5-114.3-354.8-342.9-354.8h-192.9v710.7H4684.7z"/>
	<path class="st2" d="M6305.4,666.9c5.6-15.9,14.3-27.8,26.2-35.7c12.7-7.9,26.6-11.9,41.7-11.9c19,0,35.3,6,48.8,17.9
		c14.3,11.9,21.4,27.8,21.4,47.6c0,7.1-2,17.5-5.9,31l-256,708.3c-6.3,15.9-17.1,28.2-32.1,36.9c-14.3,8.7-30.2,13.1-47.6,13.1
		c-17.5,0-33.7-4.4-48.8-13.1c-15.1-8.7-25.4-21-31-36.9l-197.6-560.7L5623.3,1424c-6.4,15.9-17.1,28.2-32.2,36.9
		c-14.3,8.7-30.1,13.1-47.6,13.1c-17.5,0-33.7-4.4-48.8-13.1c-14.3-8.7-24.2-21-29.8-36.9L5209,715.7c-4-11.9-6-22.2-6-31
		c0-19.8,7.1-35.7,21.4-47.6c15.1-11.9,32.5-17.9,52.4-17.9c15.9,0,30.2,4,42.9,11.9c12.7,7.9,21.8,19.8,27.4,35.7l202.4,582.1
		l208.3-578.6c5.6-15.9,14.7-28.2,27.4-36.9c12.7-9.5,26.6-14.3,41.7-14.3c15.1,0,29,4.8,41.7,14.3c13.5,8.7,23,21.4,28.6,38.1
		l202.4,584.5L6305.4,666.9z"/>
	<path class="st2" d="M7237.5,1374c4.8,10.3,7.1,20.6,7.1,31c0,18.3-7.5,33.7-22.6,46.4c-14.3,12.7-31,19-50,19
		c-12.7,0-24.6-3.2-35.7-9.5c-11.1-7.1-19.9-17.9-26.2-32.1l-71.4-159.5h-419l-71.4,159.5c-6.4,14.3-15.1,25-26.2,32.1
		c-11.1,6.3-23.4,9.5-36.9,9.5c-18.3,0-34.9-6.3-50-19c-15.1-12.7-22.6-28.2-22.6-46.4c0-10.3,2.4-20.6,7.1-31l328.6-705.9
		c7.1-15.9,17.8-27.8,32.1-35.7c15.1-8.7,31-13.1,47.6-13.1c16.7,0,32.2,4.4,46.4,13.1c15.1,7.9,26.2,19.8,33.3,35.7L7237.5,1374z
		 M6986.3,1150.2l-157.1-353.6L6672,1150.2H6986.3z"/>
	<path class="st2" d="M7513.9,1471.6c-23.8,0-42.9-6.7-57.1-20.2c-13.5-14.3-20.2-32.9-20.2-56V752.6h-216.7
		c-47.6,0-71.4-21-71.4-63.1c0-42.1,23.8-63.1,71.4-63.1h586.9c47.6,0,71.4,21,71.4,63.1c0,42.1-23.8,63.1-71.4,63.1h-216.7v642.8
		c0,23-7.1,41.7-21.4,56C7555.2,1464.9,7537,1471.6,7513.9,1471.6z"/>
	<path class="st2" d="M8334.5,1471.6c-23.8,0-42.9-6.7-57.1-20.2c-13.5-14.3-20.2-32.9-20.2-56V752.6h-216.7
		c-47.6,0-71.4-21-71.4-63.1c0-42.1,23.8-63.1,71.4-63.1h586.9c47.6,0,71.4,21,71.4,63.1c0,42.1-23.8,63.1-71.4,63.1h-216.7v642.8
		c0,23-7.1,41.7-21.4,56C8375.8,1464.9,8357.5,1471.6,8334.5,1471.6z"/>
	<path class="st2" d="M8992.5,636.5c28.6,0,54.6,6.7,77.8,20.2c23.5,13.5,42,31.9,55.4,55.4c13.5,23.2,20.2,49.1,20.2,77.8
		c0,28.6-6.7,54.7-20.2,78.2c-13.5,23.2-31.9,41.7-55.4,55.4c-23.5,13.5-49.4,20.2-77.8,20.2c-28.6,0-54.7-6.7-78.2-20.2
		c-23.5-13.7-42-32.2-55.4-55.4c-13.5-23.5-20.2-49.6-20.2-78.2c0-28.6,6.7-54.6,20.2-77.8c13.5-23.5,31.9-42,55.4-55.4
		C8937.8,643.2,8963.8,636.5,8992.5,636.5z M8992.5,924.3c24.9,0,47.5-5.9,67.9-17.6c20.3-11.7,36.2-27.9,47.7-48.5
		c11.7-20.6,17.6-43.4,17.6-68.3c0-24.9-5.9-47.5-17.6-67.9c-11.5-20.6-27.4-36.8-47.7-48.5c-20.3-11.7-43-17.6-67.9-17.6
		c-25.2,0-48,5.9-68.3,17.6c-20.3,11.7-36.4,27.9-48.1,48.5c-11.5,20.3-17.2,43-17.2,67.9c0,24.9,5.7,47.7,17.2,68.3
		c11.7,20.6,27.8,36.8,48.1,48.5C8944.5,918.5,8967.3,924.3,8992.5,924.3z M9068.5,861.6c2.3,3.2,3.4,6,3.4,8.6
		c0,3.7-1.6,6.9-4.7,9.5c-3.2,2.3-6.7,3.4-10.7,3.4c-6.3,0-11.3-2.9-15-8.6l-33.9-52c-3.4-5.4-7.2-9.2-11.2-11.2
		c-3.7-2.3-8.9-3.4-15.5-3.4h-21.1v58.9c0,5.2-1.4,9.2-4.3,12c-2.9,2.6-6.7,3.9-11.6,3.9s-8.7-1.3-11.6-3.9c-2.9-2.9-4.3-6.9-4.3-12
		V715.1c0-4.9,1.3-8.7,3.9-11.6c2.9-2.9,6.7-4.3,11.6-4.3h60.6c19.8,0,35.1,4.7,46,14.2c11.2,9.2,16.8,22.3,16.8,39.5
		c0,14.3-4.2,26.1-12.5,35.2c-8,8.9-19.3,14.5-33.9,16.8c4.9,1.1,9.2,3.3,12.9,6.4c3.7,3.2,7.6,7.4,11.6,12.9L9068.5,861.6z
		 M9000.2,783c11.7,0,20.5-2.3,26.2-6.9c6-4.6,9-12,9-22.3c0-10.6-2.9-18-8.6-22.3c-5.7-4.6-14.6-6.9-26.6-6.9h-40.4V783H9000.2z"/>
	<g>
		<g>
			<path class="st0" d="M1398.9,2340.9v-396.3c0-14.1,11.5-25.6,24.9-25.6h278.1c12.8,0,23,10.2,23,23c0,12.8-10.2,23-23,23h-252.5
				v152.8h223.7c12.8,0,23,10.9,23,23c0,12.8-10.2,23-23,23h-223.7v156.6h255.7c12.8,0,23,10.2,23,23c0,12.8-10.2,23-23,23h-281.3
				C1410.4,2366.5,1398.9,2355,1398.9,2340.9z"/>
			<path class="st0" d="M1823.4,1921.6c0-13.4,10.9-24.9,24.3-24.9c14.1,0,24.9,11.5,24.9,24.9v423.2c0,14.1-10.2,24.9-24.3,24.9
				c-14.1,0-24.9-10.9-24.9-24.9V1921.6z"/>
			<path class="st0" d="M2131.5,2374.2c-90.8,0-164.9-69.7-164.9-172v-1.3c0-95.2,67.1-172,158.5-172c97.8,0,153.4,79.9,153.4,167.5
				c0,13.4-10.9,23-23,23h-239.1c7,71.6,57.5,111.9,116.3,111.9c40.9,0,71-16,95.2-38.4c3.8-3.2,8.3-5.8,14.1-5.8
				c12.1,0,21.7,9.6,21.7,21.1c0,5.8-2.6,11.5-7.7,16C2224.8,2354.3,2187.7,2374.2,2131.5,2374.2z M2229.3,2183
				c-5.1-60.1-39.6-112.5-105.5-112.5c-57.5,0-101,47.9-107.4,112.5H2229.3z"/>
			<path class="st0" d="M2345,2202.8v-1.3c0-93.3,72.9-172.6,169.4-172.6c55,0,92.1,21.1,121.5,47.9c3.8,3.2,7.7,9.6,7.7,17.3
				c0,13.4-10.9,23.7-23.7,23.7c-6.4,0-12.1-2.6-16-5.8c-23.7-21.7-50.5-39.6-90.1-39.6c-67.1,0-118.3,56.9-118.3,127.8v1.3
				c0,71.6,52.4,128.5,121.5,128.5c37.7,0,67.8-17.3,92.1-40.3c3.2-3.2,7.7-6.4,14.1-6.4c12.1,0,22.4,10.9,22.4,22.4
				c0,5.8-2.6,11.5-6.4,15.3c-31.3,31.3-69,53.1-124.7,53.1C2417.9,2374.2,2345,2295.5,2345,2202.8z"/>
			<path class="st0" d="M2747.7,2278.9v-199.4h-26.8c-11.5,0-21.7-10.2-21.7-21.7c0-12.1,10.2-21.7,21.7-21.7h26.8v-78
				c0-13.4,10.2-24.9,24.3-24.9c13.4,0,24.9,11.5,24.9,24.9v78h85.7c12.1,0,22.4,10.2,22.4,21.7c0,12.1-10.2,21.7-22.4,21.7h-85.7
				v193.1c0,40.3,22.4,55,55.6,55c17.3,0,26.2-4.5,30-4.5c11.5,0,21.1,9.6,21.1,21.1c0,8.9-5.8,16-14.1,19.2
				c-14.1,5.8-29.4,8.9-48.6,8.9C2788,2372.2,2747.7,2346,2747.7,2278.9z"/>
			<path class="st0" d="M2988.7,2057.7c0-13.4,10.9-24.9,24.3-24.9c14.1,0,24.9,10.9,24.9,24.9v62c24.3-55,72.2-88.2,113.8-88.2
				c14.7,0,24.3,10.9,24.3,24.9c0,13.4-8.9,23-21.7,24.9c-63.9,7.7-116.3,55.6-116.3,150.9v112.5c0,13.4-10.2,24.9-24.3,24.9
				c-14.1,0-24.9-10.9-24.9-24.9V2057.7z"/>
			<path class="st0" d="M3247.6,1932.4c0-16,12.8-26.2,28.8-26.2c16.6,0,29.4,10.2,29.4,26.2v8.3c0,15.3-12.8,26.2-29.4,26.2
				c-16,0-28.8-10.9-28.8-26.2V1932.4z M3252.1,2057.7c0-13.4,10.9-24.9,24.3-24.9c14.1,0,24.9,10.9,24.9,24.9v287
				c0,14.1-10.2,24.9-24.3,24.9c-14.1,0-24.9-10.9-24.9-24.9V2057.7z"/>
			<path class="st0" d="M3434.3,2079.5h-26.8c-12.1,0-21.1-9.6-21.1-21.7c0-11.5,9.6-21.1,21.1-21.1h26.8v-28.8
				c0-37.7,10.2-66.5,28.8-85c16.6-16.6,40.9-25.6,71-25.6c16,0,28.1,1.3,39,3.8c9.6,1.9,17.9,10.2,17.9,21.1
				c0,12.8-10.9,22.4-23.7,21.1c-8.3-1.3-17.3-3.2-26.8-3.2c-38.4,0-57.5,23-57.5,70.3v26.8h85.7c12.1,0,21.7,8.9,21.7,21.1
				c0,11.5-9.6,21.1-21.7,21.1h-85v265.3c0,13.4-10.2,24.9-24.3,24.9c-14.1,0-24.9-11.5-24.9-24.9V2079.5z"/>
			<path class="st0" d="M3643.9,2461.1c-7.7-3.2-15.3-9.6-15.3-21.1c0-12.1,10.2-21.1,21.1-21.1c4.5,0,8.3,1.3,12.1,2.6
				c9.6,3.2,19.2,5.8,35.8,5.8c30.7,0,48.6-18.5,66.5-58.8l2.6-5.1l-138.1-292.8c-1.9-4.5-3.2-8.9-3.2-13.4
				c0-13.4,10.9-24.3,24.9-24.3c13.4,0,20.5,8.3,24.9,19.2l115.1,259.5l102.3-260.2c3.8-10.2,10.9-18.5,23.7-18.5
				c13.4,0,24.3,10.9,24.3,24.3c0,3.8-1.3,8.3-2.6,12.1l-129.1,308.1c-28.8,68.4-60.7,93.3-110.6,93.3
				C3676.5,2470.7,3660.5,2466.8,3643.9,2461.1z"/>
			<path class="st0" d="M4361.8,2374.2c-90.8,0-164.9-69.7-164.9-172v-1.3c0-95.2,67.1-172,158.5-172c97.8,0,153.4,79.9,153.4,167.5
				c0,13.4-10.9,23-23,23h-239.1c7,71.6,57.5,111.9,116.3,111.9c40.9,0,71-16,95.2-38.4c3.8-3.2,8.3-5.8,14.1-5.8
				c12.1,0,21.7,9.6,21.7,21.1c0,5.8-2.6,11.5-7.7,16C4455.1,2354.3,4418,2374.2,4361.8,2374.2z M4459.6,2183
				c-5.1-60.1-39.6-112.5-105.5-112.5c-57.5,0-101,47.9-107.4,112.5H4459.6z"/>
			<path class="st0" d="M4714.6,2371.6h-2.6c-13.4,0-22.4-8.3-28.1-21.1l-124-280c-1.3-4.5-3.2-8.9-3.2-13.4
				c0-12.8,10.9-24.3,24.9-24.3s21.1,8.3,24.9,19.2l106.8,258.3l108.7-259.5c3.2-9.6,10.2-17.9,23-17.9c13.4,0,24.3,10.9,24.3,24.3
				c0,4.5-1.3,8.9-2.6,12.1l-124.7,281.3C4736.4,2363.3,4728.1,2371.6,4714.6,2371.6z"/>
			<path class="st0" d="M5082.9,2374.2c-90.8,0-164.9-69.7-164.9-172v-1.3c0-95.2,67.1-172,158.5-172c97.8,0,153.4,79.9,153.4,167.5
				c0,13.4-10.9,23-23,23h-239.1c7,71.6,57.5,111.9,116.3,111.9c40.9,0,71-16,95.2-38.4c3.8-3.2,8.3-5.8,14.1-5.8
				c12.1,0,21.7,9.6,21.7,21.1c0,5.8-2.6,11.5-7.7,16C5176.2,2354.3,5139.1,2374.2,5082.9,2374.2z M5180.7,2183
				c-5.1-60.1-39.6-112.5-105.5-112.5c-57.5,0-101,47.9-107.4,112.5H5180.7z"/>
			<path class="st0" d="M5316.8,2057.7c0-13.4,10.9-24.9,24.3-24.9c14.1,0,24.9,10.9,24.9,24.9v62c24.3-55,72.2-88.2,113.8-88.2
				c14.7,0,24.3,10.9,24.3,24.9c0,13.4-8.9,23-21.7,24.9c-63.9,7.7-116.3,55.6-116.3,150.9v112.5c0,13.4-10.2,24.9-24.3,24.9
				c-14.1,0-24.9-10.9-24.9-24.9V2057.7z"/>
			<path class="st0" d="M5569.3,2461.1c-7.7-3.2-15.3-9.6-15.3-21.1c0-12.1,10.2-21.1,21.1-21.1c4.5,0,8.3,1.3,12.1,2.6
				c9.6,3.2,19.2,5.8,35.8,5.8c30.7,0,48.6-18.5,66.5-58.8l2.6-5.1L5554,2070.5c-1.9-4.5-3.2-8.9-3.2-13.4
				c0-13.4,10.9-24.3,24.9-24.3c13.4,0,20.5,8.3,24.9,19.2l115.1,259.5l102.3-260.2c3.8-10.2,10.9-18.5,23.7-18.5
				c13.4,0,24.3,10.9,24.3,24.3c0,3.8-1.3,8.3-2.6,12.1l-129.1,308.1c-28.8,68.4-60.7,93.3-110.6,93.3
				C5601.9,2470.7,5585.9,2466.8,5569.3,2461.1z"/>
			<path class="st0" d="M5968.2,2278.9v-199.4h-26.8c-11.5,0-21.7-10.2-21.7-21.7c0-12.1,10.2-21.7,21.7-21.7h26.8v-78
				c0-13.4,10.2-24.9,24.3-24.9c13.4,0,24.9,11.5,24.9,24.9v78h85.7c12.1,0,22.4,10.2,22.4,21.7c0,12.1-10.2,21.7-22.4,21.7h-85.7
				v193.1c0,40.3,22.4,55,55.6,55c17.3,0,26.2-4.5,30-4.5c11.5,0,21.1,9.6,21.1,21.1c0,8.9-5.8,16-14.1,19.2
				c-14.1,5.8-29.4,8.9-48.6,8.9C6008.5,2372.2,5968.2,2346,5968.2,2278.9z"/>
			<path class="st0" d="M6209.2,1921.6c0-13.4,10.9-24.9,24.3-24.9c14.1,0,24.9,11.5,24.9,24.9v172c21.7-35.8,56.3-64.6,113.1-64.6
				c79.9,0,126.6,53.7,126.6,132.3v183.5c0,14.1-10.9,24.9-24.3,24.9c-14.1,0-24.9-10.9-24.9-24.9v-171.3
				c0-61.4-33.2-99.7-91.4-99.7c-56.9,0-99.1,41.6-99.1,103.6v167.5c0,14.1-10.2,24.9-24.3,24.9c-14.1,0-24.9-10.9-24.9-24.9V1921.6
				z"/>
			<path class="st0" d="M6603,1932.4c0-16,12.8-26.2,28.8-26.2c16.6,0,29.4,10.2,29.4,26.2v8.3c0,15.3-12.8,26.2-29.4,26.2
				c-16,0-28.8-10.9-28.8-26.2V1932.4z M6607.4,2057.7c0-13.4,10.9-24.9,24.3-24.9c14.1,0,24.9,10.9,24.9,24.9v287
				c0,14.1-10.2,24.9-24.3,24.9c-14.1,0-24.9-10.9-24.9-24.9V2057.7z"/>
			<path class="st0" d="M6771.1,2057.7c0-13.4,10.9-24.9,24.3-24.9c14.1,0,24.9,10.9,24.9,24.9v35.8c21.7-35.8,56.3-64.6,113.1-64.6
				c79.9,0,126.6,53.7,126.6,132.3v183.5c0,14.1-10.9,24.9-24.3,24.9c-14.1,0-24.9-10.9-24.9-24.9v-171.3
				c0-61.4-33.2-99.7-91.4-99.7c-56.9,0-99.1,41.6-99.1,103.6v167.5c0,14.1-10.2,24.9-24.3,24.9c-14.1,0-24.9-10.9-24.9-24.9V2057.7
				z"/>
			<path class="st0" d="M7173.1,2431c-7.7-3.8-12.8-11.5-12.8-20.5c0-10.9,10.9-21.7,22.4-21.7c4.5,0,7.7,1.3,10.9,3.2
				c34.5,23,74.2,35.8,117,35.8c72.9,0,120.2-40.3,120.2-117.6v-39c-28.8,38.4-69,69.7-129.8,69.7c-79.3,0-155.3-59.4-155.3-154.7
				v-1.3c0-96.5,76.7-156,155.3-156c62,0,102.3,30.7,129.1,66.5v-37.7c0-13.4,10.2-24.9,24.3-24.9c14.1,0,24.9,11.5,24.9,24.9V2309
				c0,51.1-15.3,90.1-42.2,117c-29.4,29.4-73.5,44.1-125.9,44.1C7260.7,2470,7214.7,2456.6,7173.1,2431z M7432,2185.6v-1.3
				c0-67.8-58.8-111.9-121.5-111.9c-62.6,0-114.4,43.5-114.4,111.2v1.3c0,66.5,53.1,112.5,114.4,112.5
				C7373.2,2297.4,7432,2252.1,7432,2185.6z"/>
			<path class="st0" d="M7612.9,2296.2c17.3,0,30,12.8,30,30v12.8c0,17.3-12.8,30.7-30,30.7c-17.9,0-30.7-13.4-30.7-30.7v-12.8
				C7582.3,2309,7595,2296.2,7612.9,2296.2z"/>
		</g>
	</g>
</g>
</svg>
