<?xml version="1.0" encoding="utf-8"?>
<!-- Generator: Adobe Illustrator 28.0.0, SVG Export Plug-In . SVG Version: 6.00 Build 0)  -->
<svg version="1.1" id="Layer_1" xmlns="http://www.w3.org/2000/svg" xmlns:xlink="http://www.w3.org/1999/xlink" x="0px" y="0px"
	 viewBox="0 0 259.3 43.5" style="enable-background:new 0 0 259.3 43.5;" xml:space="preserve">
<style type="text/css">
	.st0{fill:#FEC66F;}
</style>
<polygon class="st0" points="22.9,0 29.9,14.3 45.7,16.6 34.3,27.7 37,43.5 22.9,36 8.7,43.5 11.4,27.7 0,16.6 15.8,14.3 "/>
<polygon class="st0" points="76.3,0 83.3,14.3 99.1,16.6 87.7,27.7 90.4,43.5 76.3,36 62.1,43.5 64.8,27.7 53.4,16.6 69.2,14.3 "/>
<polygon class="st0" points="129.6,0 136.7,14.3 152.5,16.6 141.1,27.7 143.8,43.5 129.6,36 115.5,43.5 118.2,27.7 106.8,16.6 
	122.6,14.3 "/>
<polygon class="st0" points="183,0 190.1,14.3 205.9,16.6 194.5,27.7 197.2,43.5 183,36 168.9,43.5 171.6,27.7 160.2,16.6 176,14.3 
	"/>
<polygon class="st0" points="236.4,0 243.5,14.3 259.3,16.6 247.9,27.7 250.6,43.5 236.4,36 222.3,43.5 225,27.7 213.6,16.6 
	229.4,14.3 "/>
</svg>
