<?xml version="1.0" encoding="utf-8"?>
<!-- Generator: Adobe Illustrator 28.0.0, SVG Export Plug-In . SVG Version: 6.00 Build 0)  -->
<svg version="1.1" id="Layer_1" xmlns="http://www.w3.org/2000/svg" xmlns:xlink="http://www.w3.org/1999/xlink" x="0px" y="0px"
	 viewBox="0 0 86.7 86.7" style="enable-background:new 0 0 86.7 86.7;" xml:space="preserve">
<style type="text/css">
	.st0{fill:#83C574;}
</style>
<g>
	<path class="st0" d="M43.4,86.7C19.5,86.7,0,67.3,0,43.3C0,19.4,19.4,0,43.4,0c23.9,0,43.3,19.4,43.3,43.3
		C86.7,67.2,67.3,86.7,43.4,86.7z M43.4,5.3c-20.9,0-38,17-38,38c0,20.9,17,38,38,38c20.9,0,38-17,38-38
		C81.4,22.4,64.3,5.3,43.4,5.3z"/>
	<polygon class="st0" points="23.4,39.8 18.5,44.7 35,61.2 65.6,30.7 60.7,25.8 35,51.5 	"/>
</g>
</svg>
