<?xml version="1.0" encoding="utf-8"?>
<!-- Generator: Adobe Illustrator 28.0.0, SVG Export Plug-In . SVG Version: 6.00 Build 0)  -->
<svg version="1.1" id="Layer_1" xmlns="http://www.w3.org/2000/svg" xmlns:xlink="http://www.w3.org/1999/xlink" x="0px" y="0px"
	 viewBox="0 0 31.3 15.6" style="enable-background:new 0 0 31.3 15.6;" xml:space="preserve">
<style type="text/css">
	.st0{fill:none;}
	.st1{fill:#3B3E45;}
	.st2{fill:url(#SVGID_1_);}
	.st3{fill:url(#SVGID_00000029764792691437128590000018363467603823701413_);}
	.st4{fill:url(#SVGID_00000006701441760683008410000013912551033957701301_);}
</style>
<pattern  x="-955" y="-528.4" width="67" height="67" patternUnits="userSpaceOnUse" id="New_Pattern_Swatch_6" viewBox="0 -67 67 67" style="overflow:visible;">
	<g>
		<rect y="-67" class="st0" width="67" height="67"/>
		<rect y="-67" class="st1" width="67" height="67"/>
	</g>
</pattern>
<g>
	<pattern  id="SVGID_1_" xlink:href="#New_Pattern_Swatch_6" patternTransform="matrix(1 0 0 1 -50 -62)">
	</pattern>
	<path class="st2" d="M31.3,11.5c0.2-2.2-0.4-4-1.5-5.1C28.7,5.2,27,5,25.1,4.7c-0.8-0.2-1.9-0.2-2.6-0.4c-0.3-0.1-0.7-0.6-1-0.8
		c-1.2-0.9-2-1.7-3.3-2.5c-2.5-1.3-7.8-0.9-11-0.4C6,0.8,4.6,0.9,3.7,1.3C2.7,1.8,2.1,3.1,1.5,4C0.9,4.9,0.2,5.7,0,6.7
		C-0.1,7.2,0,8,0,9c0,2.8,0.1,4.6,2.8,4.5c0-2.8,1.3-4.7,3.8-4.7c2.5-0.1,4,2,3.9,4.6c3.3,0.2,7,0,10.4,0.1
		c-0.1-2.8,1.4-4.7,3.9-4.7c2.5,0.1,3.8,2,3.8,4.6C30.3,13.8,31.2,12.7,31.3,11.5z"/>
	
		<pattern  id="SVGID_00000106851066845838240430000013042244434454638475_" xlink:href="#New_Pattern_Swatch_6" patternTransform="matrix(1 0 0 1 -50 -62)">
	</pattern>
	<circle style="fill:url(#SVGID_00000106851066845838240430000013042244434454638475_);" cx="6.7" cy="12.6" r="2.9"/>
	
		<pattern  id="SVGID_00000158707341762620102280000004016461598342277311_" xlink:href="#New_Pattern_Swatch_6" patternTransform="matrix(1 0 0 1 -50 -62)">
	</pattern>
	<path style="fill:url(#SVGID_00000158707341762620102280000004016461598342277311_);" d="M24.8,9.8c-1.6,0-2.9,1.3-2.9,2.9
		s1.3,2.9,2.9,2.9s2.9-1.3,2.9-2.9S26.5,9.8,24.8,9.8z"/>
</g>
</svg>
