<?xml version="1.0" encoding="utf-8"?>
<!-- Generator: Adobe Illustrator 28.0.0, SVG Export Plug-In . SVG Version: 6.00 Build 0)  -->
<svg version="1.1" id="Layer_1" xmlns="http://www.w3.org/2000/svg" xmlns:xlink="http://www.w3.org/1999/xlink" x="0px" y="0px"
	 viewBox="0 0 65.5 37.9" style="enable-background:new 0 0 65.5 37.9;" xml:space="preserve">
<style type="text/css">
	.st0{fill:none;}
	.st1{fill:#838083;}
	.st2{fill:url(#SVGID_00000003090469279992320930000004285077539682981554_);}
	.st3{fill:url(#SVGID_00000031171414597082091480000003582180281940630168_);}
	.st4{fill:url(#SVGID_00000143577790971431405740000017022908221870504124_);}
	.st5{fill:url(#SVGID_00000109740607662589406210000017933049816841505936_);}
	.st6{fill:url(#SVGID_00000039110487998534558770000005433087645688620183_);}
	.st7{fill:url(#SVGID_00000102525674361934152310000016811281860211495060_);}
</style>
<pattern  x="-927.3" y="558.8" width="67" height="67" patternUnits="userSpaceOnUse" id="SVGID_0000000164759094593273108" viewBox="0 -67 67 67" style="overflow:visible;">
	<g>
		<rect y="-67" class="st0" width="67" height="67"/>
		<g>
			<rect y="-67" class="st0" width="67" height="67"/>
			<rect y="-67" class="st1" width="67" height="67"/>
		</g>
	</g>
</pattern>
<pattern  x="-927.3" y="558.8" width="67" height="67" patternUnits="userSpaceOnUse" id="SVGID_0000001604172425056768854" viewBox="0 -67 67 67" style="overflow:visible;">
	<g>
		<rect y="-67" class="st0" width="67" height="67"/>
		<g>
			<rect y="-67" class="st0" width="67" height="67"/>
			<rect y="-67" class="st1" width="67" height="67"/>
		</g>
	</g>
</pattern>
<pattern  x="-927.3" y="558.8" width="67" height="67" patternUnits="userSpaceOnUse" id="SVGID_0000011331266161251185299" viewBox="0 -67 67 67" style="overflow:visible;">
	<g>
		<rect y="-67" class="st0" width="67" height="67"/>
		<g>
			<rect y="-67" class="st0" width="67" height="67"/>
			<rect y="-67" class="st1" width="67" height="67"/>
		</g>
	</g>
</pattern>
<pattern  x="-927.3" y="558.8" width="67" height="67" patternUnits="userSpaceOnUse" id="SVGID_0000016017312051826424004" viewBox="0 -67 67 67" style="overflow:visible;">
	<g>
		<rect y="-67" class="st0" width="67" height="67"/>
		<g>
			<rect y="-67" class="st0" width="67" height="67"/>
			<rect y="-67" class="st1" width="67" height="67"/>
		</g>
	</g>
</pattern>
<pattern  x="-927.3" y="558.8" width="67" height="67" patternUnits="userSpaceOnUse" id="SVGID_0000016951738846490162798" viewBox="0 -67 67 67" style="overflow:visible;">
	<g>
		<rect y="-67" class="st0" width="67" height="67"/>
		<g>
			<rect y="-67" class="st0" width="67" height="67"/>
			<rect y="-67" class="st1" width="67" height="67"/>
		</g>
	</g>
</pattern>
<pattern  x="-927.3" y="558.8" width="67" height="67" patternUnits="userSpaceOnUse" id="SVGID_1_" viewBox="0 -67 67 67" style="overflow:visible;">
	<g>
		<rect y="-67" class="st0" width="67" height="67"/>
		<g>
			<rect y="-67" class="st0" width="67" height="67"/>
			<rect y="-67" class="st1" width="67" height="67"/>
		</g>
	</g>
</pattern>
<g>
	
		<pattern  id="SVGID_00000105422439311013200300000005577624580170364072_" xlink:href="#SVGID_1_" patternTransform="matrix(1 0 0 -1 -50 -17564.8008)">
	</pattern>
	<path style="fill:url(#SVGID_00000105422439311013200300000005577624580170364072_);" d="M47.3,36.4c-10,0-18.2-8.1-18.2-18.2
		C29.1,8.2,37.2,0,47.3,0c10,0,18.2,8.1,18.2,18.2C65.4,28.2,57.3,36.4,47.3,36.4z M47.3,2.3c-8.8,0-15.9,7.1-15.9,15.9
		c0,8.8,7.1,15.9,15.9,15.9c8.8,0,15.9-7.1,15.9-15.9S56,2.3,47.3,2.3z"/>
	
		<pattern  id="SVGID_00000054266664827324877380000001506626495392428183_" xlink:href="#SVGID_0000001604172425056768854" patternTransform="matrix(1 0 0 -1 -50 -17564.8008)">
	</pattern>
	<polygon style="fill:url(#SVGID_00000054266664827324877380000001506626495392428183_);" points="38.9,16.7 36.8,18.8 43.8,25.7 
		56.6,12.9 54.5,10.9 43.8,21.7 	"/>
</g>
<g>
	
		<pattern  id="SVGID_00000178191779177708025600000013181905337866985139_" xlink:href="#SVGID_0000011331266161251185299" patternTransform="matrix(1 0 0 -1 -50 -17564.8008)">
	</pattern>
	<path style="fill:url(#SVGID_00000178191779177708025600000013181905337866985139_);" d="M12.7,3.9v0.7c0,0.9,0.7,1.7,1.7,1.7h2.4
		c0.1,0,0.3,0,0.4,0.2l0,0c0.1,0.1,0.2,0.3,0.2,0.4v28.6c0,0.1,0,0.3-0.2,0.4l0,0c-0.1,0.1-0.3,0.2-0.4,0.2H2.5
		c-0.1,0-0.3,0-0.4-0.2l0,0c-0.1-0.1-0.2-0.3-0.2-0.4V6.9c0-0.1,0-0.3,0.2-0.5s0.3-0.2,0.5-0.2H5c0.9,0,1.7-0.7,1.7-1.7V3.9
		L12.7,3.9 M13.6,2.1h-8c-0.2,0-0.4,0-0.6,0.2C4.9,2.4,4.8,2.6,4.8,2.9v1.6H2.4c-0.6,0-1.2,0.2-1.7,0.7C0.3,5.7,0,6.2,0,6.9v28.6
		c0,0.6,0.2,1.2,0.7,1.7s1,0.7,1.7,0.7h14.3c0.6,0,1.2-0.2,1.7-0.7c0.5-0.4,0.7-1,0.7-1.7V6.9c0-0.6-0.2-1.2-0.7-1.7
		c-0.4-0.5-1-0.7-1.7-0.7h-2.4V2.9c0-0.2-0.1-0.4-0.2-0.6C14,2.2,13.9,2.1,13.6,2.1L13.6,2.1z"/>
	
		<pattern  id="SVGID_00000044856552225622386080000006603604877014935978_" xlink:href="#SVGID_0000000164759094593273108" patternTransform="matrix(1 0 0 -1 -50 -17564.8008)">
	</pattern>
	<path style="fill:url(#SVGID_00000044856552225622386080000006603604877014935978_);" d="M16.6,19.1c0,0.7-0.6,1.3-1.3,1.3H4
		c-0.7,0-1.3-0.6-1.3-1.3v-4c0-0.7,0.6-1.3,1.3-1.3h11.3c0.7,0,1.3,0.6,1.3,1.3V19.1L16.6,19.1z"/>
	
		<pattern  id="SVGID_00000062896194544853897410000011666659808117401250_" xlink:href="#SVGID_0000016951738846490162798" patternTransform="matrix(1 0 0 -1 -50 -17564.8008)">
	</pattern>
	<path style="fill:url(#SVGID_00000062896194544853897410000011666659808117401250_);" d="M16.6,26.4c0,0.7-0.6,1.3-1.3,1.3H4
		c-0.7,0-1.3-0.6-1.3-1.3v-4c0-0.7,0.6-1.3,1.3-1.3h11.3c0.7,0,1.3,0.6,1.3,1.3V26.4L16.6,26.4z"/>
	
		<pattern  id="SVGID_00000149371190561634728780000000437316880558229683_" xlink:href="#SVGID_0000016017312051826424004" patternTransform="matrix(1 0 0 -1 -50 -17564.8008)">
	</pattern>
	<path style="fill:url(#SVGID_00000149371190561634728780000000437316880558229683_);" d="M16.6,33.8c0,0.7-0.6,1.3-1.3,1.3H4
		c-0.7,0-1.3-0.6-1.3-1.3v-4c0-0.7,0.6-1.3,1.3-1.3h11.3c0.7,0,1.3,0.6,1.3,1.3V33.8L16.6,33.8z"/>
</g>
</svg>
