<?xml version="1.0" encoding="utf-8"?>
<!-- Generator: Adobe Illustrator 28.0.0, SVG Export Plug-In . SVG Version: 6.00 Build 0)  -->
<svg version="1.1" id="Layer_1" xmlns="http://www.w3.org/2000/svg" xmlns:xlink="http://www.w3.org/1999/xlink" x="0px" y="0px"
	 viewBox="0 0 89.2 36.5" style="enable-background:new 0 0 89.2 36.5;" xml:space="preserve">
<style type="text/css">
	.st0{fill:none;}
	.st1{fill:#838083;}
	.st2{fill:url(#SVGID_00000026863188801362600410000013567927104181685912_);}
	.st3{fill:url(#SVGID_00000078010564068314777220000015113547104684847530_);}
	.st4{fill:url(#SVGID_00000001623016820562180800000004020748035279420342_);}
	.st5{fill:url(#SVGID_00000031165432807280748820000013210623439505868423_);}
	.st6{fill:url(#SVGID_00000051350872649822565000000004390183475861744800_);}
	.st7{fill:url(#SVGID_00000039831990116851662780000004213091336483240121_);}
	.st8{fill:url(#SVGID_00000058568468463016991700000014714576411208289190_);}
	.st9{fill:url(#SVGID_00000063605510523585352870000011361537450635088536_);}
	.st10{fill:url(#SVGID_00000178180302257819108180000004333296120494252973_);}
	.st11{fill:url(#SVGID_00000116219734137385780410000008331940944741665408_);}
	.st12{fill:url(#SVGID_00000111906902817666671110000009534872067629540789_);}
	.st13{fill:url(#SVGID_00000003065469913857331150000005205949572090957246_);}
	.st14{fill:url(#SVGID_00000173871735851205451200000010919521222316843689_);}
	.st15{fill:url(#SVGID_00000074401085129422589980000001513223831202245510_);}
	.st16{fill:url(#SVGID_00000057848546021818988270000008961953591632249240_);}
	.st17{fill:url(#SVGID_00000172402544528729444780000012645912762576880807_);}
	.st18{fill:url(#SVGID_00000129924836489994124550000015574813099763070611_);}
	.st19{fill:url(#SVGID_00000089550006200857472380000012451257432627433093_);}
	.st20{fill:url(#SVGID_00000054252553016845133590000001780788779929386143_);}
	.st21{fill:url(#SVGID_00000094591212081997003660000016499506990916530869_);}
	.st22{fill:url(#SVGID_00000183251323207243587820000005336826731607477394_);}
</style>
<pattern  x="-915.5" y="558" width="67" height="67" patternUnits="userSpaceOnUse" id="SVGID_0000000090409115246887210" viewBox="0 -67 67 67" style="overflow:visible;">
	<g>
		<rect y="-67" class="st0" width="67" height="67"/>
		<g>
			<rect y="-67" class="st0" width="67" height="67"/>
			<rect y="-67" class="st1" width="67" height="67"/>
		</g>
	</g>
</pattern>
<pattern  x="-915.5" y="558" width="67" height="67" patternUnits="userSpaceOnUse" id="SVGID_0000001965396210698536244" viewBox="0 -67 67 67" style="overflow:visible;">
	<g>
		<rect y="-67" class="st0" width="67" height="67"/>
		<g>
			<rect y="-67" class="st0" width="67" height="67"/>
			<rect y="-67" class="st1" width="67" height="67"/>
		</g>
	</g>
</pattern>
<pattern  x="-915.5" y="558" width="67" height="67" patternUnits="userSpaceOnUse" id="SVGID_0000002037105964119506018" viewBox="0 -67 67 67" style="overflow:visible;">
	<g>
		<rect y="-67" class="st0" width="67" height="67"/>
		<g>
			<rect y="-67" class="st0" width="67" height="67"/>
			<rect y="-67" class="st1" width="67" height="67"/>
		</g>
	</g>
</pattern>
<pattern  x="-915.5" y="558" width="67" height="67" patternUnits="userSpaceOnUse" id="SVGID_0000006144041327869425751" viewBox="0 -67 67 67" style="overflow:visible;">
	<g>
		<rect y="-67" class="st0" width="67" height="67"/>
		<g>
			<rect y="-67" class="st0" width="67" height="67"/>
			<rect y="-67" class="st1" width="67" height="67"/>
		</g>
	</g>
</pattern>
<pattern  x="-915.5" y="558" width="67" height="67" patternUnits="userSpaceOnUse" id="SVGID_0000006864517286868727033" viewBox="0 -67 67 67" style="overflow:visible;">
	<g>
		<rect y="-67" class="st0" width="67" height="67"/>
		<g>
			<rect y="-67" class="st0" width="67" height="67"/>
			<rect y="-67" class="st1" width="67" height="67"/>
		</g>
	</g>
</pattern>
<pattern  x="-915.5" y="558" width="67" height="67" patternUnits="userSpaceOnUse" id="SVGID_0000008163160845611542122" viewBox="0 -67 67 67" style="overflow:visible;">
	<g>
		<rect y="-67" class="st0" width="67" height="67"/>
		<g>
			<rect y="-67" class="st0" width="67" height="67"/>
			<rect y="-67" class="st1" width="67" height="67"/>
		</g>
	</g>
</pattern>
<pattern  x="-915.5" y="558" width="67" height="67" patternUnits="userSpaceOnUse" id="SVGID_0000008378856084541487256" viewBox="0 -67 67 67" style="overflow:visible;">
	<g>
		<rect y="-67" class="st0" width="67" height="67"/>
		<g>
			<rect y="-67" class="st0" width="67" height="67"/>
			<rect y="-67" class="st1" width="67" height="67"/>
		</g>
	</g>
</pattern>
<pattern  x="-915.5" y="558" width="67" height="67" patternUnits="userSpaceOnUse" id="SVGID_0000010038414344734231502" viewBox="0 -67 67 67" style="overflow:visible;">
	<g>
		<rect y="-67" class="st0" width="67" height="67"/>
		<g>
			<rect y="-67" class="st0" width="67" height="67"/>
			<rect y="-67" class="st1" width="67" height="67"/>
		</g>
	</g>
</pattern>
<pattern  x="-915.5" y="558" width="67" height="67" patternUnits="userSpaceOnUse" id="SVGID_0000010038512701643961269" viewBox="0 -67 67 67" style="overflow:visible;">
	<g>
		<rect y="-67" class="st0" width="67" height="67"/>
		<g>
			<rect y="-67" class="st0" width="67" height="67"/>
			<rect y="-67" class="st1" width="67" height="67"/>
		</g>
	</g>
</pattern>
<pattern  x="-915.5" y="558" width="67" height="67" patternUnits="userSpaceOnUse" id="SVGID_0000011404544526981029862" viewBox="0 -67 67 67" style="overflow:visible;">
	<g>
		<rect y="-67" class="st0" width="67" height="67"/>
		<g>
			<rect y="-67" class="st0" width="67" height="67"/>
			<rect y="-67" class="st1" width="67" height="67"/>
		</g>
	</g>
</pattern>
<pattern  x="-915.5" y="558" width="67" height="67" patternUnits="userSpaceOnUse" id="SVGID_0000011623454558106281049" viewBox="0 -67 67 67" style="overflow:visible;">
	<g>
		<rect y="-67" class="st0" width="67" height="67"/>
		<g>
			<rect y="-67" class="st0" width="67" height="67"/>
			<rect y="-67" class="st1" width="67" height="67"/>
		</g>
	</g>
</pattern>
<pattern  x="-915.5" y="558" width="67" height="67" patternUnits="userSpaceOnUse" id="SVGID_0000011839706444602426827" viewBox="0 -67 67 67" style="overflow:visible;">
	<g>
		<rect y="-67" class="st0" width="67" height="67"/>
		<g>
			<rect y="-67" class="st0" width="67" height="67"/>
			<rect y="-67" class="st1" width="67" height="67"/>
		</g>
	</g>
</pattern>
<pattern  x="-915.5" y="558" width="67" height="67" patternUnits="userSpaceOnUse" id="SVGID_0000012054914346513842979" viewBox="0 -67 67 67" style="overflow:visible;">
	<g>
		<rect y="-67" class="st0" width="67" height="67"/>
		<g>
			<rect y="-67" class="st0" width="67" height="67"/>
			<rect y="-67" class="st1" width="67" height="67"/>
		</g>
	</g>
</pattern>
<pattern  x="-915.5" y="558" width="67" height="67" patternUnits="userSpaceOnUse" id="SVGID_0000014071430090058300474" viewBox="0 -67 67 67" style="overflow:visible;">
	<g>
		<rect y="-67" class="st0" width="67" height="67"/>
		<g>
			<rect y="-67" class="st0" width="67" height="67"/>
			<rect y="-67" class="st1" width="67" height="67"/>
		</g>
	</g>
</pattern>
<pattern  x="-915.5" y="558" width="67" height="67" patternUnits="userSpaceOnUse" id="SVGID_0000014358142185243436991" viewBox="0 -67 67 67" style="overflow:visible;">
	<g>
		<rect y="-67" class="st0" width="67" height="67"/>
		<g>
			<rect y="-67" class="st0" width="67" height="67"/>
			<rect y="-67" class="st1" width="67" height="67"/>
		</g>
	</g>
</pattern>
<pattern  x="-915.5" y="558" width="67" height="67" patternUnits="userSpaceOnUse" id="SVGID_0000016595689170078085078" viewBox="0 -67 67 67" style="overflow:visible;">
	<g>
		<rect y="-67" class="st0" width="67" height="67"/>
		<g>
			<rect y="-67" class="st0" width="67" height="67"/>
			<rect y="-67" class="st1" width="67" height="67"/>
		</g>
	</g>
</pattern>
<pattern  x="-915.5" y="558" width="67" height="67" patternUnits="userSpaceOnUse" id="SVGID_0000017024213026540934533" viewBox="0 -67 67 67" style="overflow:visible;">
	<g>
		<rect y="-67" class="st0" width="67" height="67"/>
		<g>
			<rect y="-67" class="st0" width="67" height="67"/>
			<rect y="-67" class="st1" width="67" height="67"/>
		</g>
	</g>
</pattern>
<pattern  x="-915.5" y="558" width="67" height="67" patternUnits="userSpaceOnUse" id="SVGID_0000017096809075540742782" viewBox="0 -67 67 67" style="overflow:visible;">
	<g>
		<rect y="-67" class="st0" width="67" height="67"/>
		<g>
			<rect y="-67" class="st0" width="67" height="67"/>
			<rect y="-67" class="st1" width="67" height="67"/>
		</g>
	</g>
</pattern>
<pattern  x="-915.5" y="558" width="67" height="67" patternUnits="userSpaceOnUse" id="SVGID_0000017888540449241757112" viewBox="0 -67 67 67" style="overflow:visible;">
	<g>
		<rect y="-67" class="st0" width="67" height="67"/>
		<g>
			<rect y="-67" class="st0" width="67" height="67"/>
			<rect y="-67" class="st1" width="67" height="67"/>
		</g>
	</g>
</pattern>
<pattern  x="-915.5" y="558" width="67" height="67" patternUnits="userSpaceOnUse" id="SVGID_0000018180792675678470077" viewBox="0 -67 67 67" style="overflow:visible;">
	<g>
		<rect y="-67" class="st0" width="67" height="67"/>
		<g>
			<rect y="-67" class="st0" width="67" height="67"/>
			<rect y="-67" class="st1" width="67" height="67"/>
		</g>
	</g>
</pattern>
<pattern  x="-915.5" y="558" width="67" height="67" patternUnits="userSpaceOnUse" id="SVGID_1_" viewBox="0 -67 67 67" style="overflow:visible;">
	<g>
		<rect y="-67" class="st0" width="67" height="67"/>
		<g>
			<rect y="-67" class="st0" width="67" height="67"/>
			<rect y="-67" class="st1" width="67" height="67"/>
		</g>
	</g>
</pattern>
<g>
	
		<pattern  id="SVGID_00000017478155222750780600000010728500213381570697_" xlink:href="#SVGID_1_" patternTransform="matrix(1 0 0 -1 -50 -17566)">
	</pattern>
	<path style="fill:url(#SVGID_00000017478155222750780600000010728500213381570697_);" d="M22.7,29.1c-3.3,0-6.6,0-9.9,0
		c-0.5,2.5-1,4.9-1.5,7.4c3.8,0,7.6,0,11.4,0C22.7,34,22.7,31.5,22.7,29.1z"/>
	
		<pattern  id="SVGID_00000115503941293697527170000000371013930795572880_" xlink:href="#SVGID_0000006864517286868727033" patternTransform="matrix(1 0 0 -1 -50 -17566)">
	</pattern>
	<path style="fill:url(#SVGID_00000115503941293697527170000000371013930795572880_);" d="M24.1,29c0,2.5,0,5,0,7.4
		c3.6,0,7.3,0,10.9,0c-0.5-2.5-1-5-1.5-7.4C30.4,29,27.3,29,24.1,29z"/>
	
		<pattern  id="SVGID_00000111166524304148692750000006407324580384929983_" xlink:href="#SVGID_0000000090409115246887210" patternTransform="matrix(1 0 0 -1 -50 -17566)">
	</pattern>
	<path style="fill:url(#SVGID_00000111166524304148692750000006407324580384929983_);" d="M46.7,35.4c-0.4-1.4-0.8-2.8-1.2-4.2
		c-0.2-0.7-0.4-1.4-0.6-2.1c-3.3,0-6.5,0-9.8,0c0.5,2.5,1,4.9,1.5,7.4c0.2,0,0.3,0,0.4,0c3,0,6,0,9,0C46.6,36.5,46.9,36.1,46.7,35.4
		z"/>
	
		<pattern  id="SVGID_00000148635763028489110820000012594045492962361516_" xlink:href="#SVGID_0000018180792675678470077" patternTransform="matrix(1 0 0 -1 -50 -17566)">
	</pattern>
	<path style="fill:url(#SVGID_00000148635763028489110820000012594045492962361516_);" d="M2.2,29c-0.2,0-0.3,0.1-0.3,0.3
		c-0.6,2-1.2,4.1-1.8,6.1c-0.2,0.6,0.1,1,0.8,1c1.5,0,3.1,0,4.6,0c1.4,0,2.8,0,4.3,0c0.5-2.5,1-4.9,1.5-7.5C11.2,29,5.2,29,2.2,29z"
		/>
	
		<pattern  id="SVGID_00000024707420105299490620000012666490077903232650_" xlink:href="#SVGID_0000017024213026540934533" patternTransform="matrix(1 0 0 -1 -50 -17566)">
	</pattern>
	<path style="fill:url(#SVGID_00000024707420105299490620000012666490077903232650_);" d="M33.9,21.4c-0.1,0-0.2,0-0.3,0
		c0,0.1,0,0.1,0,0.1c0.4,1.9,0.8,3.8,1.1,5.7c0.1,0.3,0.2,0.4,0.5,0.4c3,0,5.9,0,8.9,0c0.1,0,0.2,0,0.4,0c0-0.1,0-0.2-0.1-0.3
		c-0.5-1.8-1.1-3.7-1.6-5.5c-0.1-0.3-0.2-0.4-0.5-0.4C39.5,21.4,36.7,21.4,33.9,21.4z"/>
	
		<pattern  id="SVGID_00000104693700783573411050000013360515251843922588_" xlink:href="#SVGID_0000017096809075540742782" patternTransform="matrix(1 0 0 -1 -50 -17566)">
	</pattern>
	<path style="fill:url(#SVGID_00000104693700783573411050000013360515251843922588_);" d="M13.1,27.6c3.2,0,6.4,0,9.6,0
		c0-2.1,0-4.1,0-6.2c-2.8,0-5.6,0-8.4,0C13.9,23.5,13.5,25.5,13.1,27.6z"/>
	
		<pattern  id="SVGID_00000045610319071716467040000004573105064764295560_" xlink:href="#SVGID_0000006144041327869425751" patternTransform="matrix(1 0 0 -1 -50 -17566)">
	</pattern>
	<path style="fill:url(#SVGID_00000045610319071716467040000004573105064764295560_);" d="M24.1,27.6c3.1,0,6.1,0,9.2,0
		c-0.4-2.1-0.8-4.1-1.2-6.1c-2.7,0-5.3,0-8,0C24.1,23.5,24.1,25.6,24.1,27.6z"/>
	
		<pattern  id="SVGID_00000176023180457255021610000012080857892878161029_" xlink:href="#SVGID_0000011623454558106281049" patternTransform="matrix(1 0 0 -1 -50 -17566)">
	</pattern>
	<path style="fill:url(#SVGID_00000176023180457255021610000012080857892878161029_);" d="M32.1,14.3c0.4,1.9,0.8,3.8,1.1,5.7
		c3,0,6,0,9,0v-0.1c-0.5-1.7-1-3.4-1.5-5.1c-0.1-0.4-0.3-0.5-0.8-0.5c-1.9,0-3.7,0-5.6,0C33.7,14.3,32.9,14.3,32.1,14.3z"/>
	
		<pattern  id="SVGID_00000065043764695945990160000012175245151507268230_" xlink:href="#SVGID_0000011404544526981029862" patternTransform="matrix(1 0 0 -1 -50 -17566)">
	</pattern>
	<path style="fill:url(#SVGID_00000065043764695945990160000012175245151507268230_);" d="M8.8,19.7"/>
	
		<pattern  id="SVGID_00000029020110137724888830000017089235415482048669_" xlink:href="#SVGID_0000001965396210698536244" patternTransform="matrix(1 0 0 -1 -50 -17566)">
	</pattern>
	<path style="fill:url(#SVGID_00000029020110137724888830000017089235415482048669_);" d="M9.2,20c1.3,0,2.6,0,3.9,0
		c0.4-1.9,0.8-3.8,1.1-5.7c-0.2,0-0.3,0-0.4,0c-2.3,0-4.6,0-6.9,0c-0.5,0-0.7,0.1-0.9,0.7c-0.3,1-1,4.1-1.3,5.1"/>
	
		<pattern  id="SVGID_00000047034955798520114580000006857202851083447474_" xlink:href="#SVGID_0000010038414344734231502" patternTransform="matrix(1 0 0 -1 -50 -17566)">
	</pattern>
	<path style="fill:url(#SVGID_00000047034955798520114580000006857202851083447474_);" d="M22.6,14.3c-2.2,0-4.5,0-6.7,0
		c-0.2,0-0.2,0.2-0.3,0.3c-0.2,1.2-0.5,2.5-0.7,3.8c-0.1,0.5-0.2,1.1-0.3,1.7c2.7,0,5.4,0,8.1,0C22.7,18.1,22.7,16.2,22.6,14.3
		L22.6,14.3z"/>
	
		<pattern  id="SVGID_00000116921063470493923370000012957418041484208516_" xlink:href="#SVGID_0000002037105964119506018" patternTransform="matrix(1 0 0 -1 -50 -17566)">
	</pattern>
	<path style="fill:url(#SVGID_00000116921063470493923370000012957418041484208516_);" d="M24.2,14.3c0,1.9,0,3.8,0,5.7
		c2.5,0,5.1,0,7.7,0c-0.4-1.9-0.8-3.8-1.1-5.7C28.5,14.3,26.3,14.3,24.2,14.3z"/>
	
		<pattern  id="SVGID_00000129906007111614461170000004683993602082183851_" xlink:href="#SVGID_0000012054914346513842979" patternTransform="matrix(1 0 0 -1 -50 -17566)">
	</pattern>
	<path style="fill:url(#SVGID_00000129906007111614461170000004683993602082183851_);" d="M23.1,3.6c1,0.2,0.8-0.8,0.8-1.8
		c0-0.9,0.1-1.9-0.8-1.8c-0.8,0.1-0.6,0.8-0.6,1.7C22.4,2.7,22.3,3.5,23.1,3.6z"/>
	
		<pattern  id="SVGID_00000025403335102069009250000010422508547483811764_" xlink:href="#SVGID_0000017888540449241757112" patternTransform="matrix(1 0 0 -1 -50 -17566)">
	</pattern>
	<path style="fill:url(#SVGID_00000025403335102069009250000010422508547483811764_);" d="M16.6,4.8c0.3,0.3,0.7,0.9,1.2,1
		s0.9-0.3,0.8-0.8c-0.1-0.3-0.6-0.8-0.9-1.1c-0.4-0.4-0.8-1-1.4-1C16,3,15.6,3.2,15.7,3.6C15.7,4,16.4,4.5,16.6,4.8z"/>
	
		<pattern  id="SVGID_00000154418927301174255040000011671388529525577375_" xlink:href="#SVGID_0000010038512701643961269" patternTransform="matrix(1 0 0 -1 -50 -17566)">
	</pattern>
	<path style="fill:url(#SVGID_00000154418927301174255040000011671388529525577375_);" d="M28.6,5.8c0.4-0.1,0.8-0.6,1.1-1
		c0.4-0.4,0.9-0.7,0.9-1.2c0-0.6-0.5-0.8-0.8-0.7c-0.5,0.1-0.9,0.7-1.2,1S27.7,4.6,27.7,5C27.7,5.4,28.1,5.8,28.6,5.8z"/>
	
		<pattern  id="SVGID_00000013915849549599005620000001167721865822217377_" xlink:href="#SVGID_0000014358142185243436991" patternTransform="matrix(1 0 0 -1 -50 -17566)">
	</pattern>
	<path style="fill:url(#SVGID_00000013915849549599005620000001167721865822217377_);" d="M17.6,12.3H19c-0.3-0.6-0.4-1.2-0.4-1.9
		c0-1.7,0.9-3,1.9-3.7c0.6-0.4,1.4-0.7,2.4-0.8c2.2-0.2,3.8,1.2,4.4,2.6c0.6,1.4,0.5,2.8,0,3.9h1.5c0.2-0.6,0.3-1.2,0.3-2
		c0-1.8-0.8-3.4-1.8-4.2c-1-0.9-2.5-1.8-4.4-1.7c-0.7,0-1.3,0.2-1.9,0.4c-1.6,0.6-2.7,1.8-3.3,3.2C17.1,9.5,17.2,11,17.6,12.3z"/>
	
		<pattern  id="SVGID_00000146462612882286838770000016604193207561734301_" xlink:href="#SVGID_0000014071430090058300474" patternTransform="matrix(1 0 0 -1 -50 -17566)">
	</pattern>
	<path style="fill:url(#SVGID_00000146462612882286838770000016604193207561734301_);" d="M14.7,11c0.5,0,1,0.1,1.4,0
		c0.4-0.2,0.8-1.1,0-1.4c-0.4-0.1-0.9,0-1.2,0c-0.4,0-1-0.1-1.3,0s-0.6,0.2-0.5,0.7C12.9,11.2,13.8,11,14.7,11z"/>
	
		<pattern  id="SVGID_00000043459173465018228530000016356568325951122053_" xlink:href="#SVGID_0000011839706444602426827" patternTransform="matrix(1 0 0 -1 -50 -17566)">
	</pattern>
	<path style="fill:url(#SVGID_00000043459173465018228530000016356568325951122053_);" d="M29.9,10.2c-0.1,1,0.9,0.8,1.8,0.8
		c1,0,1.8,0.1,1.8-0.7s-0.8-0.7-1.7-0.7c-0.5,0-1.1,0-1.3,0C30.1,9.7,29.9,9.9,29.9,10.2z"/>
	
		<pattern  id="SVGID_00000021102434367387930490000008802966602824247458_" xlink:href="#SVGID_0000016595689170078085078" patternTransform="matrix(1 0 0 -1 -50 -17566)">
	</pattern>
	<path style="fill:url(#SVGID_00000021102434367387930490000008802966602824247458_);" d="M4.1,21.4c-0.3,0-0.4,0.1-0.5,0.4
		c-0.5,1.8-1.1,3.7-1.6,5.5c0,0.1,0,0.2-0.1,0.3c0.2,0,0.3,0,0.4,0c3,0,5.9,0,8.9,0c0.3,0,0.4-0.1,0.5-0.4c0.4-1.9,0.7-3.8,1.1-5.7
		v-0.1c-0.1,0-0.2,0-0.3,0C9.7,21.4,6.9,21.4,4.1,21.4z"/>
</g>
<pattern  id="SVGID_00000119804298400520990780000004907640523607312816_" xlink:href="#SVGID_0000008378856084541487256" patternTransform="matrix(1 0 0 -1 -50 -17566)">
</pattern>
<path style="fill:url(#SVGID_00000119804298400520990780000004907640523607312816_);" d="M71,36.4c-10,0-18.2-8.1-18.2-18.2
	C52.8,8.2,60.9,0,71,0c10,0,18.2,8.1,18.2,18.2C89.2,28.2,81,36.4,71,36.4z M71,2.3c-8.8,0-15.9,7.1-15.9,15.9
	c0,8.8,7.1,15.9,15.9,15.9c8.8,0,15.9-7.1,15.9-15.9C86.9,9.4,79.8,2.3,71,2.3z"/>
<pattern  id="SVGID_00000124126282113809759580000011977783725934491542_" xlink:href="#SVGID_0000008163160845611542122" patternTransform="matrix(1 0 0 -1 -50 -17566)">
</pattern>
<polygon style="fill:url(#SVGID_00000124126282113809759580000011977783725934491542_);" points="62.6,16.7 60.6,18.8 67.5,25.7 
	80.3,12.9 78.3,10.9 67.5,21.6 "/>
</svg>
